<?xml version="1.0" encoding="UTF-8"?>
<svg xmlns="http://www.w3.org/2000/svg" viewBox="62.46 -1.60 122.37 137.72" role="img" aria-labelledby="emblem-story-title">
  <title id="emblem-story-title">Traditional Culture Foundation emblem</title>
  <g id="main-ring" class="logo-part is-dimmed">
    <path d="m 442.892,223.6394 c -0.2089,0 -0.4135,-0.003 -0.6066,-0.008 -0.1984,-0.006 -0.3836,-0.0938 -0.5189,-0.2477 -0.4187,-0.4773 -0.8043,-0.8923 -1.1779,-1.2651 -0.0965,-0.0974 -0.1953,-0.1945 -0.2933,-0.2899 -0.2211,-0.2146 -0.2876,-0.5243 -0.171,-0.8099 0.1144,-0.2834 0.3777,-0.4609 0.6854,-0.4609 1.7531,0 3.0978,-0.4135 3.9229,-0.7598 l 0.201,-0.0917 c 0.2183,0.0538 0.8716,0.1739 1.874,0.1739 1.7396,0 4.5746,-0.3613 8.2048,-2.0838 -0.1539,0.544 -0.2397,1.1286 -0.2927,1.7081 -0.0336,0.3615 -0.1853,0.6748 -0.4271,0.8815 -3.4383,2.9353 -9.1178,3.2532 -11.4006,3.2532 z" transform="translate(-257.7876,-179.3933)" style="fill:#b08a64;fill-rule:evenodd"/>
    <path d="m 480.2019,240.3263 c -4.4022,0 -10.7743,-0.7457 -16.1331,-4.302 -0.2455,-0.1639 -0.2757,-0.4187 -0.2205,-0.6027 0.0687,-0.2267 0.2619,-0.3748 0.4917,-0.3748 0.0306,0 0.0622,0.002 0.0937,0.008 1.7953,0.2862 4.2403,0.6268 5.6959,0.6268 1.8562,0 3.4734,-0.1266 4.503,-0.2333 0.1095,-0.0114 0.2191,-0.0164 0.3278,-0.0164 0.7685,0 1.5235,0.2797 2.1265,0.7884 2.1732,1.8312 4.2091,2.9726 6.0503,3.3905 0.1945,0.075 0.2834,0.2482 0.2811,0.3756 -0.002,0.0959 -0.0521,0.1704 -0.133,0.1996 -0.5087,0.0509 -1.5949,0.1404 -3.0834,0.1404 z" transform="translate(-257.7876,-179.3933)" style="fill:#b08a64;fill-rule:evenodd"/>
    <path d="m 445.4971,228.1363 c -0.2075,0 -0.3941,-0.1065 -0.498,-0.2854 -0.3105,-0.5339 -0.6476,-1.0712 -1.0032,-1.5957 l 1.7904,0.3977 c 0.1867,0.0374 0.3398,0.1568 0.4207,0.3292 0.0795,0.171 0.0737,0.3649 -0.0186,0.5325 l -0.1731,0.3162 c -0.106,0.1911 -0.2991,0.3055 -0.5182,0.3055 z" transform="translate(-257.7876,-179.3933)" style="fill:#b08a64;fill-rule:evenodd"/>
    <path d="m 440.8495,219.8546 c -0.609,0 -1.228,-0.0558 -1.8455,-0.1653 0.025,0.001 0.0507,0.001 0.0759,0.001 5.3553,0 7.9985,-4.287 8.8865,-6.1302 0.1039,0.5102 0.1577,1.0676 0.1067,1.6521 -0.1288,1.5029 -1.5807,3.0879 -3.6107,3.9428 -0.757,0.3199 -1.9971,0.6992 -3.6129,0.6992 z" transform="translate(-257.7876,-179.3933)" style="fill:#b08a64;fill-rule:evenodd"/>
    <path d="m 470.1235,234.9867 c -3.5799,0 -6.6148,-0.4622 -9.0182,-1.3732 -0.1081,-0.0413 -0.2041,-0.1036 -0.2856,-0.186 -0.4501,-0.4537 -0.8886,-0.9438 -1.3002,-1.4547 -0.186,-0.2327 -0.2225,-0.541 -0.0959,-0.8065 0.1282,-0.2676 0.3829,-0.4278 0.6819,-0.4278 2.5625,0 7.2774,-0.3464 10.3028,-2.6691 1.1199,1.9872 2.458,3.8332 3.9365,5.4804 0.1967,0.2205 0.2531,0.5268 0.1458,0.8008 -0.1065,0.2704 -0.3434,0.4465 -0.6347,0.4723 -1.2529,0.1087 -2.5087,0.1638 -3.7324,0.1638 z" transform="translate(-257.7876,-179.3933)" style="fill:#b08a64;fill-rule:evenodd"/>
    <path d="m 460.0238,230.032 c -0.2998,0 -0.6025,-0.004 -0.8966,-0.0136 -0.644,-0.0201 -1.2351,-0.3773 -1.545,-0.9318 -0.261,-0.4686 -0.503,-0.9467 -0.7184,-1.4197 -0.1974,-0.4314 -0.38,-0.8773 -0.541,-1.3245 -0.2532,-0.699 -0.0349,-1.499 0.5418,-1.9899 1.9498,-1.6622 5.8425,-4.5032 9.9979,-4.8638 0.2125,0.946 0.5109,1.9271 0.858,2.8939 0.4385,1.2221 0.9537,2.4342 1.532,3.602 0.2239,0.4545 0.2582,0.9675 0.0951,1.442 -0.1582,0.4614 -0.4858,0.8314 -0.9217,1.0417 -2.674,1.2925 -6.0458,1.5637 -8.4021,1.5637 z" transform="translate(-257.7876,-179.3933)" style="fill:#b08a64;fill-rule:evenodd"/>
    <path d="m 454.5216,227.9673 c -0.3743,0 -0.7629,0.0595 -1.1515,0.1767 -0.7012,0.2112 -1.3031,0.584 -1.6923,1.0477 -0.3972,0.4736 -0.5367,0.9945 -0.3943,1.4689 0.2077,0.6907 0.9653,1.1193 1.9764,1.1193 0.3771,0 0.7643,-0.0595 1.1507,-0.1769 0.6676,-0.2016 1.2515,-0.5552 1.6444,-0.9959 0.4351,-0.4875 0.5911,-1.0276 0.4428,-1.5199 -0.2075,-0.6907 -0.9653,-1.1199 -1.9762,-1.1199 z m 0.6304,8.8336 c -0.3371,0 -0.6649,-0.0951 -0.9454,-0.2746 -1.2836,-0.8223 -2.3363,-1.8677 -3.127,-3.1071 -1.2085,-1.8963 -1.5764,-4.1681 -1.0341,-6.3993 0.5325,-2.1925 1.8757,-4.1146 3.7812,-5.4134 l 0.1109,-0.0736 c 0.1002,-0.0651 0.2146,-0.1002 0.3306,-0.1002 0.2927,0 0.6039,0.2247 0.6197,0.6018 0.0915,2.2326 0.5181,4.1138 1.3432,5.9227 0.8408,1.8434 1.9162,3.5243 3.1971,4.9961 0.4071,0.4665 0.5416,1.0978 0.3593,1.686 -0.184,0.5931 -0.6534,1.0403 -1.2603,1.1977 -0.9582,0.2477 -1.889,0.5368 -2.7685,0.8574 -0.1945,0.0708 -0.3992,0.1065 -0.6067,0.1065 z" transform="translate(-257.7876,-179.3933)" style="fill:#b08a64;fill-rule:evenodd"/>
    <path d="m 448.8496,237.137 c -0.2353,0 -0.518,-0.1517 -0.5803,-0.4831 -0.1388,-0.7363 -0.3097,-1.4777 -0.5087,-2.2047 l 1.7024,1.1907 c 0.1322,0.0888 0.2217,0.2247 0.2525,0.3821 0.0294,0.1574 -0.007,0.3157 -0.0979,0.4473 l -0.295,0.4187 c -0.1115,0.1588 -0.2833,0.249 -0.473,0.249 z" transform="translate(-257.7876,-179.3933)" style="fill:#b08a64;fill-rule:evenodd"/>
    <path d="m 449.4119,240.0879 c -0.3392,0 -0.7221,-0.2454 -0.7601,-0.7006 l -0.003,-0.0278 -0.0493,0.004 c 0.0343,-0.1789 0.0816,-0.357 0.1846,-0.503 l 1.6229,-2.3049 c 0.1432,-0.2032 0.1961,-0.4479 0.1495,-0.6919 -0.0442,-0.2434 -0.1832,-0.4529 -0.3893,-0.5904 l -1.9642,-1.3088 c -0.3242,-0.2154 -0.4357,-0.6389 -0.2591,-0.9868 l 0.7171,-1.4075 c 0.1152,-0.2253 0.1302,-0.4801 0.0466,-0.719 -0.0852,-0.2384 -0.2592,-0.4252 -0.4894,-0.5274 l -1.4734,-0.6499 c -0.1954,-0.0866 -0.3465,-0.2517 -0.4165,-0.455 -0.0679,-0.2032 -0.048,-0.4279 0.055,-0.6154 l 0.6613,-1.2028 c 0.1409,-0.2584 0.1503,-0.5582 0.0271,-0.8243 -0.1245,-0.2664 -0.362,-0.4516 -0.6497,-0.5081 l -2.6748,-0.5238 c -0.1846,-0.0365 -0.3499,-0.1409 -0.4651,-0.2955 -0.2576,-0.3501 -0.501,-0.6649 -0.7391,-0.959 0.1444,0.0487 0.3083,0.0501 0.4764,0.0501 1.1544,0 3.4491,-0.0844 5.8533,-0.6568 -0.3969,1.9813 -1.1634,8.8673 4.2363,12.9261 0.2097,0.1574 0.3219,0.4091 0.299,0.6726 -0.0213,0.2618 -0.1724,0.4894 -0.4034,0.6089 -1.1708,0.6018 -2.2163,1.2809 -3.1085,2.0178 -0.1402,0.1175 -0.3078,0.1789 -0.4844,0.1789 z" transform="translate(-257.7876,-179.3933)" style="fill:#b08a64;fill-rule:evenodd"/>
    <path d="m 453.2644,231.0805 c -0.6856,0 -1.2022,-0.2434 -1.316,-0.6211 -0.1724,-0.5761 0.5704,-1.3318 1.6223,-1.6487 0.3125,-0.0945 0.6409,-0.1446 0.9458,-0.1446 0.6848,0 1.2014,0.244 1.316,0.6219 0.0751,0.2533 -0.0294,0.5574 -0.2963,0.8558 -0.3077,0.3456 -0.7785,0.6267 -1.326,0.7929 -0.3126,0.0943 -0.6395,0.1438 -0.9458,0.1438 z" transform="translate(-257.7876,-179.3933)" style="fill:#b08a64;fill-rule:evenodd"/>
    <path d="m 447.3431,231.9273 c -0.2468,0 -0.4543,-0.1424 -0.5452,-0.372 -0.189,-0.4795 -0.3923,-0.9568 -0.6047,-1.4168 l 1.3832,0.6633 c 0.1489,0.0659 0.261,0.1868 0.3162,0.3406 0.0544,0.1539 0.0444,0.3192 -0.0308,0.4645 -0.1016,0.201 -0.2962,0.3204 -0.5187,0.3204 z" transform="translate(-257.7876,-179.3933)" style="fill:#b08a64;fill-rule:evenodd"/>
    <path d="m 446.4186,260.8557 c -0.0974,0 -0.1925,-0.0221 -0.2842,-0.0657 l -0.5996,-0.2813 c -0.6706,-0.3098 -1.1742,-0.8937 -1.3825,-1.6035 -0.2075,-0.7056 -0.1016,-1.4649 0.2906,-2.0837 2.2554,-3.555 3.643,-7.4864 4.1274,-11.6831 0.0759,-0.6548 0.6211,-1.1479 1.2702,-1.1479 0.0965,0 0.1953,0.0108 0.291,0.0337 0.3737,0.0858 0.7723,0.1682 1.1836,0.2448 0.2262,0.0422 0.4073,0.1852 0.4988,0.3942 0.0909,0.2089 0.0738,0.4407 -0.0487,0.6363 -0.7913,1.2606 -1.5284,3.6028 -0.5509,7.5985 0.0637,0.2568 -0.0201,0.5237 -0.2191,0.6969 -3.1275,2.74 -3.8539,5.1043 -3.9125,6.6047 -0.0144,0.3679 -0.3063,0.6561 -0.6641,0.6561 z" transform="translate(-257.7876,-179.3933)" style="fill:#b08a64;fill-rule:evenodd"/>
    <path d="m 467.5529,274.8542 c -0.1229,0 -0.2446,-0.0438 -0.3499,-0.1245 -4.3227,-3.3424 -12.5652,-9.4742 -19.1972,-12.9963 -0.006,-0.0257 -0.7264,-1.5827 0.4716,-3.977 0.0931,-0.186 0.2927,-0.3071 0.5095,-0.3071 0,0 12.9582,0.7178 12.9596,0.7178 0.3549,0 0.6312,-0.2032 0.7255,-0.5038 l 0.4345,-1.3767 c 0.0994,-0.3148 -0.0258,-0.6576 -0.3077,-0.8322 l -10.9825,-6.843 c -0.1961,-0.1217 -0.3014,-0.3434 -0.2691,-0.5631 0.3413,-2.2691 1.4683,-3.2288 1.806,-3.4691 3.2258,0.4351 7.4162,0.6533 12.4338,0.6533 3.3696,0 7.0241,-0.0967 10.8638,-0.2876 h 0.002 c 0.3549,0 0.5452,0.2324 0.5925,0.4629 0.0436,0.214 -0.0193,0.5123 -0.3414,0.6497 -0.1974,0.0837 -0.3363,0.2519 -0.3785,0.463 -0.0436,0.2096 0.0164,0.4193 0.1633,0.5747 0.1251,0.1316 0.1695,0.3126 0.118,0.485 -0.0501,0.1726 -0.1848,0.3006 -0.3586,0.3428 -1.771,0.4286 -3.431,1.1728 -4.9324,2.2139 -0.098,0.0674 -0.2104,0.1031 -0.3256,0.1031 -0.0278,0 -0.0529,-0.001 -0.0787,-0.006 l -9.5744,-1.3625 c -0.0342,-0.005 -0.0679,-0.006 -0.1022,-0.006 -0.3162,0 -0.5925,0.2018 -0.6884,0.5044 l -0.7227,2.2949 c -0.0587,0.184 -0.0422,0.3793 0.048,0.5509 0.0879,0.171 0.2382,0.2984 0.4236,0.3564 l 6.0794,1.9235 c 0.1645,0.0516 0.2962,0.1733 0.3621,0.3335 0.0637,0.1546 0.0538,0.3262 -0.0249,0.4736 -0.4424,0.8252 -0.8108,1.6996 -1.0942,2.5982 -0.2833,0.8959 -0.4831,1.8227 -0.5933,2.7564 -0.0342,0.2819 -0.2768,0.4945 -0.5653,0.4945 -0.0594,0 -0.118,-0.009 -0.1746,-0.0272 l -6.0809,-1.9235 c -0.0708,-0.0221 -0.1438,-0.0335 -0.2183,-0.0335 -0.3162,0 -0.5931,0.2033 -0.689,0.5051 l -0.7219,2.2949 c -0.1081,0.3383 0.0442,0.7012 0.359,0.8623 l 8.617,4.3892 c 0.1266,0.0651 0.2248,0.1769 0.2749,0.3142 0.6318,1.7166 1.5634,3.2809 2.7691,4.6496 0.1181,0.1347 0.1554,0.3165 0.098,0.4866 -0.0578,0.1719 -0.1988,0.2942 -0.3749,0.3301 -0.2369,0.047 -0.4008,0.1752 -0.4894,0.3584 -0.0889,0.1817 -0.0874,0.3906 0.004,0.5718 l 0.038,0.0765 c 0.0937,0.186 0.088,0.39 -0.0173,0.5602 -0.1079,0.1775 -0.3004,0.2878 -0.5002,0.2878 z" transform="translate(-257.7876,-179.3933)" style="fill:#b08a64;fill-rule:evenodd"/>
    <path d="m 408.0154,284.0493 c -0.0793,0 -0.1566,-0.0193 -0.229,-0.0572 -0.6661,-0.3479 -1.5032,-0.9818 -1.7002,-2.0223 -0.1393,-0.7312 -0.2002,-1.7367 0.5667,-3.0268 1.9049,-3.2036 5.2138,-8.8188 1.9578,-10.0216 -1.431,-0.528 -0.2998,-2.5002 0.3272,-1.7288 2.6089,3.2136 7.7375,2.6706 11.8912,2.672 0.3227,0.003 0.4801,0.2262 0.5203,0.4156 0.0393,0.1876 -0.0122,0.4509 -0.2876,0.5769 -0.7621,0.3477 -1.6631,0.5767 -2.6168,0.8178 -0.4102,0.1031 -0.8309,0.2098 -1.2473,0.327 -2.413,0.6856 -4.9052,1.3939 -6.5675,3.2823 -1.9255,2.1854 -2.1432,4.4288 -1.9858,5.9258 0.0903,0.8594 0.0436,1.6843 -0.1381,2.4521 -0.0544,0.2276 -0.2562,0.3872 -0.4909,0.3872 z" transform="translate(-257.7876,-179.3933)" style="fill:#b08a64;fill-rule:evenodd"/>
    <path d="m 393.7618,260.0223 c -0.468,0 -0.8516,-0.0388 -1.17,-0.1167 -0.4509,-0.1123 -0.7171,-0.3034 -0.815,-0.5882 -0.2777,-0.8079 0.8292,-2.2227 1.899,-3.5914 0.3864,-0.4946 0.747,-0.9546 1.047,-1.3905 0.3972,-0.5761 0.528,-0.9195 0.4343,-1.1505 -0.1081,-0.2706 -0.4838,-0.3479 -1.0525,-0.4651 -0.7587,-0.1554 -1.7956,-0.3694 -2.9132,-1.1544 -0.3915,-0.274 -0.6039,-0.6182 -0.6319,-1.0231 -0.073,-1.0499 1.0806,-2.3586 2.0595,-3.2716 0.1931,-0.1811 0.4314,-0.2762 0.689,-0.2762 0.4888,0 0.9045,0.3377 1.0089,0.8221 0.8045,3.6973 2.3773,7.1107 4.6771,10.1447 0.2188,0.2891 0.2626,0.6611 0.1194,0.996 -0.1474,0.3385 -0.4515,0.5647 -0.8172,0.6046 -0.5087,0.0552 -1.0174,0.1203 -1.5105,0.184 -1.1063,0.1416 -2.1489,0.2763 -3.0239,0.2763 z" transform="translate(-257.7876,-179.3933)" style="fill:#b08a64;fill-rule:evenodd"/>
    <path d="m 461.7664,238.4161 c -0.695,0 -1.2589,0.3471 -1.2589,0.7743 0,0.4271 0.5639,0.7742 1.2589,0.7742 0.6933,0 1.2586,-0.3471 1.2586,-0.7742 0,-0.4272 -0.5653,-0.7743 -1.2586,-0.7743 z m -5.9974,1.9098 c -0.6947,0 -1.2594,0.3478 -1.2594,0.7742 0,0.4274 0.5647,0.775 1.2594,0.775 0.6941,0 1.2588,-0.3476 1.2588,-0.775 0,-0.4264 -0.5647,-0.7742 -1.2588,-0.7742 z m 13.6983,0.1797 c -0.6941,0 -1.2594,0.3484 -1.2594,0.7756 0,0.4266 0.5653,0.7737 1.2594,0.7737 0.6947,0 1.2592,-0.3471 1.2592,-0.7737 0,-0.4272 -0.5645,-0.7756 -1.2592,-0.7756 z m -5.4705,0.3977 c -0.6935,0 -1.2589,0.3471 -1.2589,0.7737 0,0.4271 0.5654,0.7742 1.2589,0.7742 0.6947,0 1.2594,-0.3471 1.2594,-0.7742 0,-0.4266 -0.5647,-0.7737 -1.2594,-0.7737 z m 1.7882,3.6158 c -7.5543,0 -13.0871,-0.4758 -16.4468,-1.4131 -0.3505,-0.098 -0.5902,-0.4252 -0.5831,-0.7935 0.004,-0.1948 0.0716,-0.3787 0.1919,-0.5161 2.6196,-2.9924 7.2234,-4.6097 10.6261,-5.4391 0.4908,-0.1194 0.9981,-0.1803 1.5062,-0.1803 1.1692,0 2.3236,0.3213 3.3404,0.9302 5.6801,3.4069 12.3291,3.9142 15.7875,3.9142 0.7564,0 1.4955,-0.0213 2.199,-0.0671 h 0.004 c 0.483,0 0.8363,0.3535 0.8386,0.7864 l 8e-4,0.1531 c -8e-4,0.3836 -0.005,0.7793 -0.015,1.2122 -0.009,0.4093 -0.325,0.7428 -0.7351,0.7742 l -0.5416,0.0422 c -0.8172,0.0608 -8.2198,0.5967 -16.1725,0.5967 z" transform="translate(-257.7876,-179.3933)" style="fill:#b08a64;fill-rule:evenodd"/>
    <path d="m 384.649,244.5372 c -0.1129,-0.001 -0.1308,-0.0207 -0.133,-0.0244 -6e-4,-0.001 -0.015,-0.0221 0.0251,-0.1231 0.0363,-0.0943 0.0879,-0.1809 0.1481,-0.2582 l -0.0252,0.3292 0.005,0.0779 z" transform="translate(-257.7876,-179.3933)" style="fill:#b08a64;fill-rule:evenodd"/>
    <path d="m 390.9977,268.5869 c -0.0453,0 -0.0895,-0.006 -0.1353,-0.0201 -1.356,-0.3935 -2.5152,-0.6803 -3.4477,-0.9107 l -0.4809,-0.1189 c -1.0803,-1.8448 -2.06,-3.9056 -2.8929,-6.1117 -0.1332,-0.3527 -0.0973,-0.7397 0.0966,-1.0625 0.1939,-0.3206 0.5166,-0.5318 0.8858,-0.5774 0.3549,-0.0453 0.7091,-0.0903 1.0626,-0.1404 0.0343,-0.003 0.0637,-0.007 0.0887,-0.007 0.0365,0.004 0.0438,0.0156 0.0401,0.0629 -0.0529,0.6083 0.166,1.1521 0.586,1.4562 0.2013,0.1438 0.4165,0.2196 0.6262,0.2196 0.2404,0 0.4552,-0.0986 0.6041,-0.2775 l 0.0549,0.2526 0.0609,0.1531 c 0.9203,2.3901 2.0065,4.5288 3.2271,6.3558 0.0996,0.1458 0.1082,0.3255 0.0272,0.4778 -0.0815,0.1532 -0.2361,0.2483 -0.4034,0.2483 z" transform="translate(-257.7876,-179.3933)" style="fill:#b08a64;fill-rule:evenodd"/>
    <path d="m 400.6366,273.9893 c -1.4276,-1.8983 -3.8069,-3.4247 -7.0734,-4.5373 l -0.2548,-0.0846 c -4.5831,-5.5642 -6.5567,-13.6915 -7.4012,-19.5284 -0.163,-1.1164 0.1217,-2.2112 0.7779,-3.0047 0.0609,-0.0724 0.1181,-0.1489 0.1724,-0.2284 0.2418,-0.3564 0.3893,-0.7821 0.4479,-1.3002 0.0166,-0.1466 0.0337,-0.1837 0.1302,-0.1837 0.3278,0.0207 0.6426,0.0328 0.9469,0.0456 l 0.3241,0.0136 0.1538,0.0394 c 0.0831,0.0101 0.1604,0.0186 0.2347,0.0395 0.3198,0.0858 0.5726,0.3247 0.677,0.6389 0.1016,0.3134 0.0414,0.6562 -0.1633,0.9153 l -0.0334,0.0444 c -0.0351,0.0485 -0.0724,0.0994 -0.1096,0.0994 -0.0407,-0.01 -0.0501,-0.013 -0.0436,-0.1045 0.003,-0.0286 0.004,-0.0617 0,-0.0931 -0.0458,-0.3777 -0.2712,-0.6432 -0.6391,-0.7448 -0.0544,-0.0144 -0.1116,-0.0223 -0.171,-0.0223 -0.2647,0 -0.5475,0.1497 -0.7026,0.3722 -0.1631,0.234 -0.1889,0.5188 -0.0694,0.7821 0.1395,0.3091 0.4535,0.5274 0.8207,0.5682 0.0422,0.005 0.0844,0.007 0.1274,0.007 0.0916,0 0.1839,-0.0114 0.2841,-0.0315 0.626,-0.1316 1.1262,-0.6389 1.215,-1.2351 0.0637,-0.4271 -0.0537,-0.8458 -0.3286,-1.1764 -0.2975,-0.3584 -0.757,-0.5738 -1.2586,-0.5911 l -0.2347,-0.008 c -0.2991,-0.0116 -0.606,-0.0215 -0.9101,-0.0266 -0.1746,-0.004 -0.2477,-0.0614 -0.2913,-0.234 -0.1446,-0.5745 -0.4594,-1.0017 -0.9316,-1.27 -0.3329,-0.1897 -0.6913,-0.2856 -1.0655,-0.2856 -0.0394,-0.6562 -0.0495,-1.1657 -0.0515,-1.4862 0.2182,0.0414 0.4637,0.0487 0.6975,0.0487 0.9712,0 2.285,-0.1175 3.029,-0.6777 0.2091,-0.156 0.4696,-0.2355 0.7773,-0.2355 0.2259,0 0.4801,0.043 0.7556,0.1274 1.3953,0.4265 2.4042,1.7381 2.5109,3.2659 0.0422,0.5939 0.1124,1.2308 0.214,1.9456 -1.1586,0.8694 -3.8748,3.1363 -3.8391,4.8651 0.009,0.5182 0.2612,0.9525 0.7456,1.2931 1.2272,0.8608 2.4065,1.1034 3.1864,1.2645 0.5454,0.1123 0.9389,0.1931 1.0255,0.4093 0.0773,0.1909 -0.0673,0.5395 -0.4515,1.0969 -0.317,0.4609 -0.7006,0.951 -1.1048,1.4684 -1.1901,1.5219 -2.4059,3.0762 -2.081,4.0235 0.1217,0.3513 0.4516,0.5969 0.9812,0.7272 0.3555,0.0878 0.7785,0.1302 1.2937,0.1302 0.9495,0 2.0758,-0.1438 3.2679,-0.2984 l 0.813,-0.1024 c 0.2754,-0.0343 0.5551,-0.053 0.8336,-0.053 1.3609,0 2.6582,0.4037 3.7489,1.1649 0.3227,0.2248 0.7126,0.4652 1.0905,0.697 1.3038,0.8022 2.7793,1.7103 2.5853,2.5282 -0.1131,0.4779 -0.1989,0.8543 -0.2691,1.1821 -0.0386,0.1795 -0.1897,0.2605 -0.3205,0.2605 -0.1116,0 -0.2505,-0.0595 -0.3077,-0.2226 -0.5325,-1.5285 -1.6286,-3.5478 -3.8312,-4.4873 l -0.2033,-0.0887 c -0.3369,-0.1517 -0.6825,-0.3057 -1.0661,-0.3071 -0.727,0 -1.746,0.1396 -2.548,0.8087 -0.7487,0.6246 -1.138,1.5706 -1.155,2.8114 -0.0308,2.1432 0.9481,3.3425 1.7738,3.9707 0.7736,0.5889 1.7783,0.9402 2.6862,0.9402 0.2548,0 0.4817,-0.0286 0.6748,-0.085 0.023,-0.006 0.0437,-0.0107 0.0601,-0.0107 0.0243,0 0.0359,0.006 0.058,0.03 0.4065,0.4385 0.2211,2.5582 -0.2103,4.1194 z" transform="translate(-257.7876,-179.3933)" style="fill:#b08a64;fill-rule:evenodd"/>
    <path d="m 442.0158,271.3471 c -0.0187,-0.1559 -0.1509,-0.2367 -0.2726,-0.2367 -0.0708,0 -0.1388,0.0278 -0.1911,0.0787 -0.0665,0.0686 -0.1475,0.1438 -0.2248,0.2175 -0.1229,0.1166 -0.2567,0.2355 -0.4034,0.36 -0.259,0.2211 -0.5511,0.4436 -0.871,0.6517 -0.1537,0.101 -0.3134,0.1939 -0.4779,0.2834 -0.3377,0.1832 -0.6941,0.3329 -1.0647,0.4351 -0.2111,0.058 -0.4251,0.0967 -0.6426,0.1166 -0.0967,0.009 -0.1918,0.0272 -0.2884,0.0272 -0.6884,0 -1.4026,-0.1552 -2.1217,-0.4608 -2.5653,-1.0883 -4.8894,-1.6643 -6.7227,-1.6651 -0.4953,0 -1.1793,0.1768 -1.6667,0.3241 -0.0872,0.0257 -0.1158,0.1002 -0.1144,0.159 10e-4,0.0207 0.0114,0.1237 0.1246,0.1495 2.0393,0.4637 7.1226,1.9335 10.3033,5.5764 0.2534,0.2905 0.511,0.5739 0.7621,0.8422 0.3249,0.3457 0.7635,0.5359 1.2351,0.5359 0.6969,0 1.303,-0.4128 1.5464,-1.0525 0.0686,-0.1803 0.1096,-0.3607 0.126,-0.5373 0.0221,-0.2591 -0.015,-0.5189 -0.1089,-0.7765 -0.1631,-0.4509 -0.4994,-0.898 -1.0096,-1.3359 l -0.3994,-0.3436 -0.0529,-0.1022 0.3694,-0.0974 0.2203,-0.0586 c 0.0271,-0.007 0.4,-0.1181 0.8121,-0.3994 0.1396,-0.0943 0.2805,-0.2075 0.4173,-0.3448 0.1645,-0.1653 0.3204,-0.3615 0.4444,-0.5976 0.0572,-0.1087 0.1036,-0.2239 0.1452,-0.3428 0.068,-0.1988 0.1093,-0.4128 0.1317,-0.6361 0.0243,-0.2446 0.0271,-0.4988 -0.005,-0.77 z" transform="translate(-257.7876,-179.3933)" style="fill:#b08a64;fill-rule:evenodd"/>
  </g>
  <g id="opera" class="logo-part is-dimmed">
    <path d="m 451.9849,253.1603 c -0.3765,-1.4483 -0.5619,-2.8014 -0.5325,-4.0043 l 11.0148,6.9123 -0.1359,0.365 z" transform="translate(-257.7876,-179.3933)" style="fill:#b08a64;fill-rule:evenodd"/>
    <path d="m 449.0163,256.7531 c 0.6885,-0.9574 1.6187,-1.9592 2.785,-2.9338 l 5.9807,1.9048 4.3651,1.3812 -0.1438,0.3685 z" transform="translate(-257.7876,-179.3933)" style="fill:#b08a64;fill-rule:evenodd"/>
    <path d="m 474.9794,272.9897 c -0.7326,1.2538 -2.3928,1.555 -3.5448,0.672 -1.935,-1.4833 -3.4756,-3.4434 -4.448,-5.7001 -1.3466,-3.1199 -1.5264,-6.6184 -0.5059,-9.8513 1.8684,-5.9243 7.2645,-9.9042 13.4275,-9.9042 0.3951,0 0.7923,0.0165 1.1901,0.0501 0.9525,0.0808 1.6129,0.996 1.4318,1.9355 -0.0801,0.4158 -0.1716,0.8968 -0.2783,1.4276 -0.161,0.8122 -0.9059,1.3797 -1.7296,1.3152 l -0.5602,-0.0442 c -4.1517,0 -7.7783,2.6632 -9.029,6.6289 -1.374,4.3536 0.5394,9.0677 4.5503,11.2101 0.1552,0.083 0.2684,0.2225 0.3191,0.3943 0.0523,0.171 0.0336,0.3521 -0.0507,0.5087 -0.2027,0.3714 -0.4832,0.8623 -0.7723,1.3574 z" transform="translate(-257.7876,-179.3933)" style="fill:#b08a64;fill-rule:evenodd"/>
    <path d="m 477.6462,266.8466 c -0.1297,0 -0.2562,-0.0365 -0.3672,-0.1051 -2.0036,-1.2337 -3.0154,-3.701 -2.2004,-5.9107 0.8974,-2.4351 2.7921,-3.2071 4.1962,-3.4304 0.8379,-0.1339 1.5399,0.6225 1.3166,1.442 -0.5931,2.178 -1.7045,6.1352 -2.3312,7.6036 -0.1039,0.2432 -0.3457,0.4006 -0.614,0.4006 z" transform="translate(-257.7876,-179.3933)" style="fill:#b08a64;fill-rule:evenodd"/>
    <path d="m 476.0955,270.1788 c -0.113,0 -0.224,-0.0286 -0.3242,-0.0824 -4.589,-2.4807 -6.1882,-8.6326 -2.6833,-13.2179 1.6229,-2.1223 4.2018,-3.2923 6.8709,-3.2923 h 6e-4 0.0187 c 0.9752,8e-4 1.6702,0.9582 1.4383,1.9063 -0.1576,0.6389 -0.7414,1.0612 -1.3983,1.0539 -0.0244,-6e-4 -0.0479,-6e-4 -0.0723,-6e-4 -3.9792,0 -7.1786,4.0201 -5.2279,8.8395 0.4071,1.0053 1.3253,1.6272 2.33,2.0351 0.3655,0.1481 0.5272,0.5667 0.3683,0.9065 -0.2304,0.4951 -0.4722,0.9939 -0.7162,1.4819 -0.1138,0.2276 -0.3456,0.37 -0.6046,0.37 z" transform="translate(-257.7876,-179.3933)" style="fill:#b08a64;fill-rule:evenodd"/>
    <path d="m 463.4489,265.0606 c -0.2675,0 -0.526,-0.0637 -0.7714,-0.1868 l -3.9643,-2.0209 c -0.7442,-0.3791 -1.1018,-1.2321 -0.8501,-2.0292 l 0.3136,-0.9939 5.7809,1.8582 c 0.6777,0.214 1.1428,0.8186 1.1801,1.5407 0.0292,0.513 -0.1302,0.956 -0.448,1.2929 -0.3234,0.3428 -0.7763,0.539 -1.2408,0.539 z" transform="translate(-257.7876,-179.3933)" style="fill:#b08a64;fill-rule:evenodd"/>
    <path d="m 466.975,253.8095 c -0.1724,0 -0.3419,-0.0257 -0.5064,-0.0779 l -4.1698,-1.3196 c -0.4329,-0.1365 -0.787,-0.4343 -0.9959,-0.8371 -0.2098,-0.4037 -0.2491,-0.8645 -0.1124,-1.2982 l 0.2339,-0.7406 5.8241,0.8516 c 0.6097,0.0874 1.1105,0.4815 1.3395,1.0547 0.2268,0.569 0.1359,1.1943 -0.2418,1.6724 -0.3578,0.4558 -0.8472,0.6947 -1.3712,0.6947 z" transform="translate(-257.7876,-179.3933)" style="fill:#b08a64;fill-rule:evenodd"/>
    <path d="m 436.3663,269.422 -0.7963,0.7292 2.4628,2.5002 c 0.4045,-0.0552 0.7858,-0.1826 1.1408,-0.3592 z" transform="translate(-257.7876,-179.3933)" style="fill:#b08a64;fill-rule:evenodd"/>
    <path d="m 441.5665,270.1027 -2.8115,-2.8687 -0.7964,0.7292 2.9223,2.9888 c 0.272,-0.2975 0.5016,-0.5917 0.6856,-0.8493 z" transform="translate(-257.7876,-179.3933)" style="fill:#b08a64;fill-rule:evenodd"/>
    <path d="m 442.6807,272.792 3.3131,3.3876 c 0.3627,-0.1891 0.7579,-0.3165 1.1672,-0.3686 l -4.3278,-4.415 c 0.04,0.4386 0.004,0.9116 -0.1525,1.396 z" transform="translate(-257.7876,-179.3933)" style="fill:#b08a64;fill-rule:evenodd"/>
    <path d="m 440.5036,271.3372 -2.9424,-3.0097 -0.7979,0.7306 2.8923,2.9552 c 0.3077,-0.2019 0.5924,-0.4337 0.848,-0.6761 z" transform="translate(-257.7876,-179.3933)" style="fill:#b08a64;fill-rule:evenodd"/>
    <path d="m 446.2456,272.612 -6.2963,-6.4723 -0.7964,0.7292 2.873,2.9316 0.6075,0.6197 3.8032,3.8799 c -0.1639,-0.3528 -0.3105,-0.9102 -0.191,-1.6881 z" transform="translate(-257.7876,-179.3933)" style="fill:#b08a64;fill-rule:evenodd"/>
    <path d="m 441.5417,264.6811 5.6966,5.8719 c 0.2669,-0.2355 0.5947,-0.4223 0.9647,-0.5647 l -5.8649,-6.0364 z" transform="translate(-257.7876,-179.3933)" style="fill:#b08a64;fill-rule:evenodd"/>
    <path d="m 440.3476,265.775 6.0418,6.2125 c 0.047,-0.1552 0.1008,-0.3148 0.1681,-0.4836 0.0802,-0.1983 0.1903,-0.3801 0.3177,-0.5511 l -5.731,-5.907 z" transform="translate(-257.7876,-179.3933)" style="fill:#b08a64;fill-rule:evenodd"/>
    <path d="m 470.2511,273.6222 c -0.1217,-0.1045 -0.2734,-0.1617 -0.4294,-0.1617 -0.0414,0 -0.0838,0.004 -0.1252,0.0128 l -0.156,0.0308 c -0.2054,0.0408 -0.3756,0.173 -0.4673,0.3621 -0.0915,0.1888 -0.0901,0.4043 0.007,0.5945 0.1189,0.3643 0.0651,0.7286 -0.1501,1.0248 -0.2191,0.304 -0.569,0.4851 -0.9361,0.4851 -0.244,0 -0.4815,-0.0829 -0.6854,-0.2389 -4.7393,-3.618 -16.5333,-12.3435 -23.6919,-15.2173 -0.2619,-0.1045 -0.5373,-0.1583 -0.8179,-0.1583 -0.6239,0 -1.235,0.2684 -1.6764,0.7372 -0.1789,0.1896 -0.3607,0.3778 -0.5418,0.5582 -4.1531,4.1573 -8.8817,6.7928 -14.0537,7.8326 -0.6304,0.1259 -1.1243,0.6109 -1.2574,1.2357 -0.009,0.0422 -0.002,0.1016 0.0224,0.1746 0.0829,0.2582 0.3355,0.4314 0.6267,0.4314 0.1059,0 0.2126,-0.0243 0.3069,-0.0679 0.6599,-0.3148 1.6323,-0.6884 2.5168,-0.6884 1.9392,0 4.3542,0.591 6.9868,1.7089 0.5294,0.2245 1.054,0.3513 1.5621,0.3898 l -2.124,-2.1565 c -0.2862,0.2423 -0.7125,0.221 -0.9673,-0.0574 l -0.2748,-0.3005 c -0.2611,-0.2862 -0.2418,-0.7306 0.0436,-0.9933 l 8.72,-7.9863 c 0.2856,-0.2621 0.7306,-0.2412 0.9917,0.045 l 0.2742,0.2998 c 0.2554,0.2791 0.2381,0.7049 -0.0272,0.9696 l 6.6805,6.8588 c 0.0694,-0.126 0.0988,-0.2727 0.0787,-0.4193 -0.2978,-2.2456 0.6805,-3.419 0.7219,-3.4677 l 0.2799,-0.3298 0.0901,-0.0459 0.2103,0.4552 c 1.3698,2.9695 5.9099,4.1202 6.4237,4.2411 l 0.0866,0.0292 c 2.9203,1.228 4.9103,3.1779 5.9164,5.7947 1.3631,3.5471 0.6355,7.6052 -0.1073,10.0989 -0.1146,0.3842 0.3593,0.667 0.6426,0.3828 0.004,-0.003 0.007,-0.007 0.0108,-0.0108 2.1545,-2.1565 5.23,-6.1273 7.0295,-8.5009 0.7272,-0.958 0.4974,-2.3256 -0.4957,-3.0038 -0.4458,-0.3043 -0.8665,-0.6242 -1.2444,-0.9489 z" transform="translate(-257.7876,-179.3933)" style="fill:#b08a64;fill-rule:evenodd"/>
    <path d="m 442.7369,263.5868 6.0423,6.2218 c 0.1588,-0.0359 0.3233,-0.0637 0.4937,-0.0838 0.1868,-0.0215 0.3765,-0.0328 0.5639,-0.0328 0.0524,0 0.1031,6e-4 0.1767,0.003 0.0552,0 0.1067,-0.008 0.1604,-0.0201 l -6.6405,-6.8172 z" transform="translate(-257.7876,-179.3933)" style="fill:#b08a64;fill-rule:evenodd"/>
  </g>
  <g id="dance-literature" class="logo-part is-dimmed">
    <path d="m 437.4901,301.9725 c -1.4749,0 -2.6163,-0.4158 -3.3954,-1.2337 -1.3482,-1.4204 -1.2438,-3.6987 -1.2079,-4.1411 0.8952,-0.9753 1.6029,-1.9312 2.0386,-2.5588 0.2419,0.7227 1.0677,2.5375 2.4259,3.6494 -0.4036,0.2534 -0.6055,0.5725 -0.6154,0.9337 -0.0258,0.8673 1.0955,1.5759 2.0838,2.1998 0.314,0.1982 0.7456,0.4708 0.9874,0.6661 -0.5475,0.1288 -1.1134,0.2998 -1.6795,0.4594 -0.2154,0.0165 -0.4309,0.0252 -0.6375,0.0252 z" transform="translate(-257.7876,-179.3933)" style="fill:#b08a64;fill-rule:evenodd"/>
    <path d="m 420.8464,304.3692 c -0.423,0 -0.8516,-0.006 -1.356,-0.0164 0.6448,-0.5373 2.1211,-1.5191 4.959,-1.5191 0.2426,0 0.4943,0.008 0.7462,0.0222 0.1667,0.01 0.3357,0.015 0.5002,0.015 2.6398,0 4.5574,-1.2923 5.7381,-2.4373 0.4945,-0.4773 1.3103,-0.38 1.6894,0.1939 0.139,0.2119 0.295,0.4079 0.4668,0.5882 0.2146,0.2276 0.4535,0.4286 0.714,0.6041 0.4801,0.3219 0.2935,1.0746 -0.2733,1.1928 -4.3121,0.8887 -8.7364,1.3566 -13.1816,1.3566 z" transform="translate(-257.7876,-179.3933)" style="fill:#b08a64;fill-rule:evenodd"/>
    <path d="m 440.4925,301.2246 c -0.2426,-0.3233 -0.7335,-0.6324 -1.2988,-0.991 -0.7521,-0.4737 -1.7769,-1.1205 -1.7639,-1.5913 0.005,-0.1696 0.1809,-0.3629 0.5095,-0.559 0.5846,0.3708 1.2244,0.559 1.8747,0.559 0.1182,0 0.2377,-0.006 0.3557,-0.0173 2.3292,-0.2267 3.0505,-1.333 3.2745,-1.9721 0.2562,-0.7355 0.0793,-1.4404 -0.2191,-1.7309 -0.2905,-0.2819 -0.7757,-0.4574 -1.2629,-0.4574 -0.0722,0 -0.1438,0.004 -0.2132,0.0108 -0.5375,0.0529 -0.9882,0.3099 -1.273,0.7235 -0.0945,0.1359 -0.3113,0.1574 -0.433,0.1574 l -0.0564,-0.002 c -0.8108,-0.0236 -2.0809,-0.714 -2.6799,-1.7031 -0.1081,-0.178 -0.1416,-0.3176 -0.096,-0.3935 0.1439,-0.2332 0.8595,-0.3377 1.5029,-0.3377 0.1503,0 0.3004,0.007 0.4336,0.0164 l 0.0264,0.002 0.0473,-0.0244 0.004,-0.0551 c 0.5668,0.4206 1.0627,0.6519 1.067,0.6541 l 0.0235,0.009 0.0509,-0.005 0.2633,-0.5661 -0.007,-0.0516 c -0.1874,-0.0886 -3.6357,-1.7645 -2.898,-3.6543 0.214,-0.5467 0.526,-0.8329 0.9311,-0.8509 h 6e-4 c 0.8752,0 1.9635,1.027 2.4164,1.9478 0.0759,0.1546 0.1582,0.342 0.2533,0.5589 0.652,1.4833 2.282,5.3103 6.7258,5.6531 0.7943,0.0606 1.0111,1.1241 0.2941,1.4718 -2.5483,1.2365 -5.1736,2.3113 -7.8541,3.1985 z" transform="translate(-257.7876,-179.3933)" style="fill:#b08a64;fill-rule:evenodd"/>
    <path d="m 460.1629,290.4133 c -0.2641,0.2153 -0.6462,-0.0472 -0.5359,-0.3714 0.9416,-2.775 2.1809,-7.5078 0.9645,-10.5283 -0.3535,-0.8773 -0.8909,-1.5578 -1.605,-2.03 -0.3528,-0.2339 -0.6211,-0.5775 -0.7927,-0.9645 -0.2514,-0.5667 -0.7221,-1.3117 -1.57,-1.8912 -0.8402,-0.5725 -1.8813,-0.8637 -3.0963,-0.8637 -0.1475,0 -0.2984,0.004 -0.453,0.0127 -0.7119,0.0394 -1.4111,-0.2052 -1.9142,-0.7125 -0.475,-0.4789 -1.1283,-0.9353 -1.8827,-0.9353 l -0.0615,0.001 c -0.8357,0.025 -1.5963,0.6047 -2.2604,1.7237 -0.0866,-0.3864 -0.1625,-1.0675 0.2469,-2.0908 0.415,-1.0369 1.643,-1.2872 2.1523,-1.3467 0.1596,-0.0186 0.3241,-0.0294 0.4874,-0.0294 0.8722,0 1.6458,0.2678 1.9249,0.6633 0.3098,0.4387 0.7477,0.6519 1.3424,0.6519 0.4657,0 0.9566,-0.1308 1.3903,-0.246 0.39,-0.1031 0.742,-0.1968 1.0097,-0.1968 0.0473,0 0.0895,0.003 0.1288,0.008 0.3657,0.053 3.6164,0.5917 5.2345,3.1751 1.0661,1.7008 1.177,3.9255 0.329,6.6145 l -0.008,0.0266 0.013,0.0507 0.5947,0.1868 0.0508,-0.0128 c 0.9245,-2.9338 0.7886,-5.3553 -0.3915,-7.2358 -1.7803,-2.843 -5.3237,-3.4363 -5.7223,-3.4941 -0.0716,-0.0101 -0.1483,-0.015 -0.229,-0.015 -0.3592,0 -0.7542,0.1045 -1.1736,0.216 -0.4601,0.1217 -0.8887,0.2282 -1.2337,0.2282 -0.3505,0 -0.5945,-0.113 -0.7663,-0.3584 -0.1475,-0.2083 -0.372,-0.3949 -0.6726,-0.5525 -0.2641,-0.8185 -0.3485,-1.5169 -0.3386,-2.0929 0.013,-0.657 0.7958,-0.9625 1.2524,-0.4917 2.1316,2.1975 5.6308,2.9338 5.6701,2.9403 2.7199,1.1406 4.5789,2.9574 5.5178,5.3996 1.1306,2.9381 0.7485,6.2671 0.1396,8.7458 -0.5554,2.2618 -1.8556,4.2734 -3.6566,5.7466 -0.0286,0.0223 -0.0566,0.0452 -0.0852,0.0681 z" transform="translate(-257.7876,-179.3933)" style="fill:#b08a64;fill-rule:evenodd"/>
    <path d="m 419.1679,303.7605 c -0.4108,0.355 -0.9339,0.5525 -1.4749,0.526 -0.3318,-0.0165 -0.6596,-0.0349 -0.9831,-0.0558 -0.1903,-0.0128 -0.2503,-0.2633 -0.0866,-0.3621 1.9464,-1.1677 1.7947,-2.79 1.7933,-2.8079 l -0.0165,-0.1466 -0.1194,0.1217 c -0.866,1.6894 -2.0802,2.7097 -3.2495,2.7269 h -0.003 c -0.5811,0 -1.0024,-0.229 -1.2314,-0.6432 -0.3077,-0.5561 -0.1797,-1.3417 0.3499,-2.1561 0.6075,-0.9359 1.6493,-1.3724 3.2773,-1.3724 1.177,0 2.5038,0.219 3.9085,0.4515 1.4711,0.2434 2.9774,0.4917 4.3719,0.4917 0.3349,0 0.6542,-0.0136 0.9503,-0.0422 1.7517,-0.1704 5.5034,-3.1379 5.5034,-3.1379 0,0 0.0954,0.3227 0.1325,0.614 0.0251,0.1939 -0.0286,0.3886 -0.1373,0.5509 -0.6018,0.8996 -2.7394,3.6545 -6.4817,3.6545 -0.1444,0 -0.2905,-0.004 -0.4357,-0.0122 -0.2791,-0.0164 -0.5546,-0.0243 -0.8229,-0.0243 -2.8444,0 -4.4487,0.9339 -5.2452,1.6235 z" transform="translate(-257.7876,-179.3933)" style="fill:#b08a64;fill-rule:evenodd"/>
    <path d="m 458.5043,282.1925 c -0.1681,0 -0.3385,-0.0286 -0.5053,-0.0815 -1.6085,-0.5217 -3.7902,-1.5021 -5.0454,-3.2164 -0.5738,-0.7844 -0.9138,-1.6745 -1.0075,-2.6449 -0.0444,-0.4594 0.1088,-0.9202 0.4201,-1.2642 0.3047,-0.3363 0.7154,-0.5211 1.1598,-0.5217 1.0763,0 1.9816,0.2468 2.6978,0.7348 1.2722,0.8629 1.5535,2.2276 1.5649,2.2856 l 0.03,0.1631 0.0394,0.0385 0.1389,0.0581 c 0.903,0.375 1.5584,1.0576 1.9499,2.0285 0.0294,0.0739 0.0572,0.1497 0.083,0.2256 0.1797,0.513 0.103,1.0604 -0.2104,1.5012 -0.3077,0.4337 -0.8,0.6933 -1.3152,0.6933 z" transform="translate(-257.7876,-179.3933)" style="fill:#b08a64;fill-rule:evenodd"/>
    <path d="m 415.8543,299.2776 c -0.2584,0.1044 -0.4436,-0.2528 -0.2089,-0.4051 1.2249,-0.7994 3.0805,-1.6014 5.7143,-1.7789 0.2313,-0.0164 0.4767,-0.0243 0.7286,-0.0243 0.9223,0 1.8311,0.1059 2.5617,0.1902 l 0.4937,0.0558 c 0.3184,0.0345 0.6397,0.0515 0.9568,0.0515 1.1105,0 2.1689,-0.203 3.147,-0.6046 2.141,-0.8773 5.0927,-2.8264 6.989,-7.1298 3.2501,-7.3819 -1.7911,-12.6599 -1.842,-12.7121 l -0.0192,-0.0194 -0.0507,-0.0122 c 0,0 4.3527,5.4742 1.2758,12.4632 -1.8018,4.0908 -4.5933,5.9377 -6.6156,6.7657 -0.8957,0.3671 -1.8661,0.5531 -2.8851,0.5531 -0.2925,0 -0.5895,-0.0158 -0.8822,-0.0473 -0.9511,-0.1022 -2.3908,-0.2239 -3.8419,-0.2239 -0.541,0 -1.054,0.0172 -1.5219,0.0507 l -0.071,0.004 c -0.3791,0 -0.714,-0.2319 -0.8558,-0.5976 -0.1274,-0.329 -0.0385,-0.7018 0.1854,-0.9752 0.9274,-1.1307 2.5803,-2.4552 5.2322,-2.4552 0.3026,0 0.6146,0.0172 0.9288,0.0509 0.5446,0.0586 1.089,0.0895 1.6144,0.0895 5.2042,0 7.7222,-2.8631 7.8275,-2.9854 l 0.0179,-0.0201 c 0,0 -2.2698,1.7181 -6.0543,2.1832 -1.1465,0.1403 -2.3185,-0.0722 -3.2996,-0.6798 -0.6075,-0.375 -0.7958,-0.6711 -0.7629,-0.7979 0.0523,-0.201 0.6176,-0.415 1.56,-0.415 0.4887,0 1.0398,0.0529 1.6357,0.1582 0.297,0.0529 0.5998,0.0801 0.8982,0.0801 3.6308,0 6.0314,-3.9127 6.1324,-4.0795 0,0 -2.9432,3.3803 -6.1576,3.3803 -0.2503,0 -0.5036,-0.0221 -0.7527,-0.0665 -0.2726,-0.0473 -0.4665,-0.2489 -0.5059,-0.5166 -0.0286,-0.2033 0.038,-0.4672 0.3114,-0.6025 0.0572,-0.0286 0.1172,-0.0537 0.1823,-0.0781 0.0688,0.007 0.1282,0.0108 0.1447,0.0116 l 0.0271,6e-4 0.0451,-0.0257 0.002,-0.0787 c 0.1824,-0.0301 0.4122,-0.0708 0.6353,-0.111 1.1136,-0.2002 2.4931,-0.4487 3.8205,-2.4586 2.5653,-3.8856 -1.7325,-9.4634 -1.9163,-9.6989 l -0.0164,-0.0221 -0.0501,-0.0179 c 0,0 3.6973,5.8799 1.4024,9.3553 -1.1628,1.7625 -2.3283,1.9708 -3.3582,2.1554 -0.314,0.0578 -0.576,0.1065 -0.8314,0.186 -0.6919,-0.0759 -3.0669,-0.4515 -4.0894,-2.1947 0.07,0.0444 0.1659,0.0466 0.261,0.0466 0.9067,0 2.5461,-0.1596 3.3396,-1.2259 l 0.2878,-0.3856 -0.0787,-0.0594 -2.4201,-0.6053 c 1.2521,-0.3635 2.8566,-1.3818 3.4033,-3.8649 0.4085,-1.8584 -0.0224,-3.5034 -1.2122,-4.6355 -0.9469,-0.8987 -2.2576,-1.3738 -3.7896,-1.3738 -0.7357,0 -1.5092,0.1095 -2.2958,0.327 -0.7312,0.2018 -1.5247,0.3785 -2.2245,0.5353 -3.842,0.8572 -7.817,1.7438 -8.6821,6.8573 -0.0493,0.2962 -0.2018,0.5546 -0.4286,0.7242 -0.0608,0.0456 -0.133,0.0714 -0.2083,0.0714 -0.1481,0 -0.3134,-0.1 -0.3406,-0.2919 -0.2004,-1.3947 -0.0493,-3.4992 1.8033,-5.6022 1.5284,-1.7373 3.9235,-2.4164 6.2397,-3.0734 0.3399,-0.0958 0.6921,-0.1889 1.0326,-0.2791 2,-0.528 4.068,-1.0732 5.059,-2.6704 0.0515,-0.083 0.1396,-0.126 0.2591,-0.126 0.3399,0 0.7965,0.3199 0.9145,0.5288 0.1589,0.2812 -0.0902,0.8674 -0.6833,1.6051 l -0.5217,0.6497 0.1389,0.0264 0.7092,-0.1136 c 0.0385,-0.007 0.4028,-0.058 1.0137,-0.058 1.9672,0 7.0264,0.5574 11.5294,5.7151 1.9263,2.2075 3.7896,3.774 5.5557,4.6763 0.943,0.4809 1.7925,1.132 2.4034,1.9971 0.4159,0.5883 0.7929,1.1915 0.8031,1.4548 0.0213,0.5545 -0.2276,1.0497 -0.6828,1.3596 -0.5809,0.3978 -1.19,0.4951 -1.2572,0.5053 l -0.0708,0.0178 c -0.0115,0.004 -0.2318,0.0858 -0.5941,0.0858 -0.4357,0 -0.8708,-0.1265 -1.3087,-0.3405 -2.5158,-1.2337 -4.3592,-6.3057 -4.3592,-6.3057 l -0.0365,0.0373 c 0.9438,3.6751 2.3185,5.9799 4.0959,6.8965 0.5238,0.2698 1.0641,0.4065 1.6057,0.4065 0.4272,0 0.7221,-0.088 0.8036,-0.1152 0.7171,-0.1308 1.4562,0.0923 1.9844,0.5976 1.2014,1.1442 2.2468,1.7803 3.1978,1.7803 0.249,0 0.4908,-0.0387 0.7198,-0.1146 1.6931,-0.5688 2.1984,-3.0825 2.3128,-3.8383 0.0974,0.0302 0.2282,0.0359 0.3621,0.0393 1.0468,0.028 1.5099,0.081 1.5342,1.0169 0.025,0.991 -0.9562,2.418 -2.6434,3.0892 -0.5703,0.2268 -1.162,0.3156 -1.7574,0.342 -2.7484,0.1209 -5.2273,-1.9964 -5.2273,-1.9964 1.6073,1.7925 3.3497,2.6854 5.2095,2.6854 0.8807,0 1.5907,-0.2081 2.0314,-0.3833 1.7939,-0.7142 3.1185,-2.3286 3.0819,-3.7548 -0.0415,-1.6371 -1.2951,-1.6702 -2.2103,-1.6945 -0.9146,-0.0249 -1.356,-0.0929 -1.5651,-0.7963 -0.2395,-0.8057 0.4201,-2.4158 1.7203,-2.785 0.5525,-0.1568 1.0304,0.043 1.2696,0.2047 1.1484,0.7835 2.6259,2.2926 3.1354,5.0468 0.1976,1.0663 -0.1702,2.8995 -1.4375,4.5904 -0.9896,1.3209 -2.8336,2.9633 -6.0016,3.2829 -0.3054,0.0303 -0.6081,0.0459 -0.8965,0.0459 -4.3306,0 -5.8491,-3.4576 -6.6633,-5.3146 -0.0967,-0.2166 -0.1924,-0.4357 -0.2756,-0.6038 -0.5653,-1.1499 -1.8432,-2.3377 -3.0032,-2.3377 l -0.07,6e-4 c -0.4818,0.0215 -1.1428,0.2618 -1.5456,1.2931 -0.4201,1.0762 0.0277,2.2117 1.2965,3.2843 -0.0408,-6e-4 -0.0824,-0.001 -0.1254,-0.001 -0.601,0 -1.3409,0.1497 -1.63,0.6168 -0.1353,0.2191 -0.2282,0.5897 0.0923,1.1199 0.7392,1.2215 2.2649,2.0101 3.2531,2.0387 h 0.003 c 0.5223,0 0.8716,-0.1539 1.0805,-0.4557 0.2138,-0.3114 0.5359,-0.4029 0.7678,-0.4258 0.0458,-0.005 0.0914,-0.007 0.1373,-0.007 0.3156,0 0.6239,0.103 0.7878,0.2612 0.1002,0.0974 0.2069,0.539 0.0473,0.9996 -0.1688,0.4832 -0.7434,1.3211 -2.6862,1.5092 -0.096,0.0101 -0.1919,0.0152 -0.2856,0.0152 -2.8343,0 -4.8379,-4.9647 -4.8586,-5.0148 l -0.0331,-0.0824 -0.0951,0.0716 c -0.0408,0.0643 -4.0422,6.471 -8.2434,6.8767 -0.2768,0.0263 -0.5746,0.0407 -0.8843,0.0407 -1.3424,0 -2.8209,-0.2454 -4.2499,-0.4823 -1.446,-0.239 -2.8113,-0.4651 -4.0507,-0.4651 -0.4846,0 -1.0182,0.1481 -1.5306,0.3572 z" transform="translate(-257.7876,-179.3933)" style="fill:#b08a64;fill-rule:evenodd"/>
    <path d="m 447.831,284.841 c -1.326,0 -2.7479,-0.5968 -4.0059,-1.6808 0.6669,0.2676 1.3546,0.3792 2.015,0.3792 0.9876,0 1.9042,-0.2489 2.7272,-0.7406 0.9624,-0.5753 1.0038,-1.7053 0.548,-2.5245 -0.2598,-0.4666 -0.7872,-0.9645 -1.487,-0.9645 -0.2483,0 -0.4979,0.0651 -0.7456,0.1945 l -0.0751,0.0552 c -0.0158,0.0142 -0.3269,0.2983 -0.6983,0.2983 -0.023,0 -0.0459,-8e-4 -0.068,-0.004 -0.2969,-0.0306 -0.5811,-0.2489 -0.8452,-0.6503 -0.3763,-0.5698 -0.1102,-1.256 0.2627,-1.7089 0.5109,-0.6183 1.3024,-0.9874 2.1188,-0.9874 0.3822,0 0.7627,0.0772 1.1341,0.2324 2.4659,1.0241 3.6251,2.9497 2.7407,5.515 -0.5024,1.4553 -1.8592,2.2411 -2.315,2.3864 -0.417,0.133 -0.8572,0.1996 -1.3064,0.1996 z" transform="translate(-257.7876,-179.3933)" style="fill:#b08a64;fill-rule:evenodd"/>
    <path d="m 448.552,289.9071 c -1.2079,0 -2.1904,-0.984 -2.1904,-2.1941 0,-1.21 0.9825,-2.1939 2.1904,-2.1939 1.2071,0 2.1903,0.9839 2.1903,2.1939 0,1.2101 -0.9832,2.1941 -2.1903,2.1941 z" transform="translate(-257.7876,-179.3933)" style="fill:#b08a64;fill-rule:evenodd"/>
    <path d="m 441.7436,277.3128 c -0.083,0.9633 -0.7171,1.7497 -1.2351,2.2392 -0.1381,0.1322 -0.2132,0.319 -0.2053,0.5101 0.009,0.1911 0.0994,0.3677 0.2483,0.4866 1.8969,1.5026 3.6815,2.2647 5.3024,2.2647 0.4385,0 0.8608,-0.0572 1.2643,-0.1673 l -5.3746,-5.4584 c -0.002,0.0422 0.003,0.0829 0,0.1251 z" transform="translate(-257.7876,-179.3933)" style="fill:#b08a64;fill-rule:evenodd"/>
    <path d="m 448.2277,282.1716 c 0.5819,-0.3477 0.589,-1.0612 0.2978,-1.5872 -0.2118,-0.3805 -0.5402,-0.6075 -0.8767,-0.6075 -0.128,0 -0.2576,0.0323 -0.3819,0.0903 -0.1211,0.1081 -0.5625,0.4586 -1.1335,0.4586 -0.0481,0 -0.0974,-0.004 -0.1469,-0.009 -0.0929,-0.009 -0.1809,-0.0374 -0.2703,-0.0651 l 1.9663,1.9971 c 0.1868,-0.0801 0.3685,-0.1718 0.5452,-0.2777 z" transform="translate(-257.7876,-179.3933)" style="fill:#b08a64;fill-rule:evenodd"/>
    <path d="m 442.3547,273.5289 c -0.1373,0.259 -0.3142,0.4951 -0.5203,0.7113 l 2.9418,3.0067 c 0.0515,-0.075 0.1022,-0.1509 0.1631,-0.2245 0.1718,-0.2084 0.3694,-0.3915 0.5846,-0.5512 l -3.0704,-3.1399 c -0.0337,0.0659 -0.0588,0.1319 -0.0988,0.1976 z" transform="translate(-257.7876,-179.3933)" style="fill:#b08a64;fill-rule:evenodd"/>
    <path d="m 441.3987,274.6313 c -0.2926,0.2168 -0.3699,0.6067 -0.176,0.8872 0.1724,0.2491 0.2949,0.5039 0.3836,0.7615 l 2.8344,2.8787 c -0.1539,-0.443 -0.131,-0.9345 0.0657,-1.4155 l -3.0734,-3.1405 c -0.0113,0.008 -0.0221,0.0193 -0.0343,0.0286 z" transform="translate(-257.7876,-179.3933)" style="fill:#b08a64;fill-rule:evenodd"/>
    <path d="m 448.9954,276.0672 c 2.4043,0.999 3.5599,2.7929 3.3402,5.1894 -0.0179,0.2002 0.0466,0.3921 0.1803,0.5424 0.139,0.1546 0.3377,0.2432 0.5469,0.2469 0.417,0.006 0.8206,0.133 1.1649,0.3677 1.2572,0.8566 2.875,2.5059 3.4275,5.4941 0.2741,1.4856 -0.3399,3.5006 -1.5643,5.1356 -0.2791,0.3708 -0.5566,0.672 -0.4894,0.697 0.2548,0.0917 1.4805,-0.958 2.4093,-1.6501 0.0917,-0.0679 0.1602,-0.156 0.2047,-0.261 0.4042,-0.9897 1.7525,-4.4775 2.1024,-7.8069 0.0351,-0.3314 -0.1962,-0.6519 -0.5138,-0.715 -1.5742,-0.3105 -5.4499,-1.3231 -7.4097,-3.9992 -0.9775,-1.3352 -1.3474,-2.9103 -1.0969,-4.6798 0.0227,-0.1654 -0.0153,-0.3264 -0.1075,-0.453 -0.3627,-0.5044 -1.0942,-1.3497 -1.9528,-1.3497 h -10e-4 c -0.6805,0.0215 -1.3316,0.6449 -1.9371,1.8519 l -0.1659,0.3321 0.77,0.7864 c 0.3663,0.0329 0.7334,0.1223 1.0926,0.2712 z" transform="translate(-257.7876,-179.3933)" style="fill:#b08a64;fill-rule:evenodd"/>
  </g>
  <g id="music" class="logo-part is-dimmed">
    <path d="m 388.7125,295.1863 c -0.2625,0 -0.5201,-0.0744 -0.744,-0.214 -0.5568,-0.3476 -1.1193,-0.7111 -1.673,-1.0811 -0.4014,-0.269 -0.6313,-0.727 -0.614,-1.2115 0.0243,-0.6798 0.002,-1.7317 -0.2168,-3.0905 -0.0301,-0.1896 0.2004,-0.3142 0.3348,-0.1746 1.0797,1.1221 2.4923,1.6529 3.5465,1.9077 0.3748,0.0902 0.6868,0.3263 0.8778,0.6641 0.1968,0.347 0.2404,0.7685 0.1195,1.1549 -0.0943,0.3006 -0.1789,0.6203 -0.2503,0.9481 -0.1418,0.6462 -0.7091,1.0969 -1.3805,1.0969 z" transform="translate(-257.7876,-179.3933)" style="fill:#b08a64;fill-rule:evenodd"/>
    <path d="m 384.9647,292.9764 c -2.1668,-1.5298 -4.2592,-3.2178 -6.2219,-5.0176 -0.3114,-0.2848 -0.516,-0.6819 -0.5755,-1.1185 -0.0651,-0.475 -0.1058,-0.9645 -0.1223,-1.4539 -0.0229,-0.7235 0.2591,-1.4191 0.7751,-1.9063 l 0.7606,-0.7213 c 0.1323,-0.1245 0.3471,-0.0164 0.3262,0.1645 -0.6325,5.2917 3.53,8.3357 4.861,9.1637 0.1373,0.0852 0.2211,0.2346 0.2166,0.3963 -0.003,0.1704 -0.01,0.3363 -0.0198,0.4931 z" transform="translate(-257.7876,-179.3933)" style="fill:#b08a64;fill-rule:evenodd"/>
    <path d="m 413.2858,303.626 c 0.0916,0.1317 -0.0165,0.3114 -0.1747,0.2921 -7.5721,-0.9389 -14.825,-3.2395 -21.5678,-6.8438 -0.6777,-0.362 -1.057,-1.1221 -0.9446,-1.8904 0.1466,-1.0032 0.4744,-2.4367 1.1986,-3.5708 h 0.0178 l 0.0323,-0.0322 0.0436,-0.113 c 0.3799,-0.5531 0.8286,-0.9761 1.3288,-1.2509 0.5174,-0.2848 1.1113,-0.4278 1.7667,-0.4278 0.1331,0 0.2698,0.005 0.4073,0.0164 0.3842,0.0321 0.6825,0.2854 0.7836,0.6718 0.0929,0.3514 -0.0345,0.7343 -0.3029,0.9804 -0.6898,0.6318 -1.1213,1.3618 -1.2837,2.1667 -0.5138,2.5397 1.7788,4.9468 1.8762,5.0476 l 0.4815,0.4968 0.0575,-0.111 0.0563,-0.5947 c 0.0745,-0.77 0.237,-1.2193 0.4954,-1.3753 0.09,-0.0543 0.203,-0.0809 0.3448,-0.0809 0.4773,0 1.2065,0.2998 2.1288,0.6799 1.6981,0.699 4.2584,1.7538 7.6044,1.7538 0.2333,0 0.4708,-0.004 0.7049,-0.015 2.8078,-0.1224 5.688,-1.2615 8.1066,-3.2079 0.0974,-0.0773 0.2081,-0.1187 0.3241,-0.1187 0.1696,0 0.3371,0.0901 0.4351,0.2353 0.0937,0.1375 0.1124,0.3026 0.053,0.4637 l -1.3059,0.7835 -2.0144,1.4061 c -1.3523,0.9432 -1.7617,2.7671 -0.9387,4.197 0.005,0.008 0.01,0.0164 0.015,0.0243 0.032,0.0558 0.1466,0.2389 0.2704,0.417 z" transform="translate(-257.7876,-179.3933)" style="fill:#b08a64;fill-rule:evenodd"/>
    <path d="m 413.4221,292.6085 c -0.0102,0.004 -0.9761,0.3728 -2.3114,0.3728 -0.3821,0 -0.7643,-0.0294 -1.1363,-0.0887 l -0.2247,-0.0351 c -2.1538,-0.3334 -5.104,-0.79 -10.6111,-8.5804 -2.2069,-3.1213 -4.0209,-5.112 -6.2377,-5.3882 -0.1988,-0.0244 -0.4014,-0.0371 -0.6024,-0.0371 -2.413,0 -3.397,1.164 -3.7418,0.7841 -0.2647,-0.2919 0.9882,-1.4813 3.7239,-1.4813 0.2319,0 0.4672,0.0144 0.7004,0.043 2.4838,0.3063 4.758,2.2333 6.7566,5.7267 1.934,3.3818 4.4064,5.8183 7.3488,7.241 2.4079,1.1655 4.5194,1.3395 5.5643,1.3395 0.4407,0 0.7069,-0.0308 0.7349,-0.0345 l 0.3799,0.004 z m -4.2878,1.2766 c -2.4759,-0.5675 -8.4773,-2.3679 -10.7436,-6.8188 -0.1724,-0.3406 -0.5044,-0.5438 -0.8872,-0.5438 -0.2963,0 -0.5797,0.1231 -0.7564,0.3292 -0.161,0.1868 -0.2253,0.4252 -0.186,0.6919 0.01,0.0716 0.0272,0.144 0.0493,0.2162 l 0.1876,0.6268 -0.0101,0.1324 -0.6726,-0.3507 c -0.1166,-0.0622 -1.1556,-0.6403 -1.8154,-1.7373 -0.0994,-0.1639 -0.2548,-0.2547 -0.4379,-0.2547 -0.1574,0 -0.3171,0.0707 -0.4244,0.1888 -0.073,0.0815 -0.156,0.2225 -0.1359,0.4286 0.0414,0.3951 -0.1754,1.4892 -0.1775,1.5 l -0.0801,0.1487 -0.0558,-0.1351 c -1.2866,-3.1229 0.9925,-4.6369 1.0146,-4.6513 l 0.5438,-0.3448 0.1274,-0.0266 -0.1438,0.7328 c -0.113,0.5696 -0.0637,1.1219 0.1461,1.64 0.1574,0.3892 0.5223,0.6312 0.9537,0.6333 0.3134,10e-4 0.6182,-0.1439 0.8331,-0.3729 0.6109,-0.6488 1.4324,-0.9438 1.6713,-1.0188 l 0.34,-0.1073 0.0909,0.007 0.0215,0.4142 c 0.2811,5.6316 11.7747,8.7602 11.9121,8.8159 z m 14.4258,-11.223 0.0444,-0.0272 h 0.0272 c 0.1396,0 3.4233,-0.0422 4.2183,-3.6515 0.3535,-1.6093 -0.006,-3.0233 -1.0118,-3.9807 -0.7992,-0.7586 -1.9842,-1.1765 -3.3395,-1.1765 -0.74,0 -1.5134,0.1209 -2.2964,0.3585 -0.4714,0.1438 -0.9608,0.2468 -1.4361,0.3484 -0.2154,0.0459 -0.43,0.0917 -0.644,0.141 -2.9746,0.6856 -6.6869,2.5489 -7.5914,5.7125 -0.0314,0.1079 -0.0903,0.1954 -0.043,0.297 0.0458,0.0994 0.1396,0.1631 0.2734,0.1631 h 0.005 c 0.0986,-0.009 0.201,-0.0144 0.3105,-0.0144 0.123,0 0.239,0.005 0.3534,0.0115 0.1059,0.004 0.2075,0.009 0.3091,0.009 0.4444,0 0.8637,-0.1002 1.4669,-0.5897 0.1195,-0.098 0.2313,-0.2097 0.3485,-0.3292 0.2191,-0.2219 0.4467,-0.4523 0.7529,-0.6024 0.3499,-0.1704 0.7256,-0.2576 1.1183,-0.2576 0.3872,0 0.7957,0.085 1.2144,0.2517 2.4795,0.9854 2.7184,3.1908 2.1103,4.8981 0.1866,0.2296 0.5073,0.727 0.5365,1.482 0.0495,1.2365 -0.6726,2.6148 -2.1458,4.0981 -0.9834,0.9903 -2.0138,1.4927 -3.062,1.4927 -0.3899,0 -0.78,-0.071 -1.157,-0.2111 -1.6045,-0.5925 -2.73,-2.3528 -2.7844,-3.0755 -0.0521,-0.7042 0.1868,-3.034 1.3876,-3.9164 0.3055,-0.2247 0.6517,-0.3377 1.0282,-0.3377 0.2633,0 0.541,0.0558 0.8235,0.1687 0.8637,0.3437 1.3862,0.8295 1.5536,1.4471 0.2361,0.8671 -0.342,1.617 -0.3664,1.6487 l -0.1237,0.0793 -0.005,-0.1223 c 0,-0.009 -0.0257,-0.881 -0.1766,-1.4254 -0.1075,-0.3937 -0.4917,-0.7235 -1.1394,-0.9797 -0.2024,-0.0823 -0.3935,-0.1223 -0.5667,-0.1223 -0.2268,0 -0.4286,0.0665 -0.616,0.2053 -0.8974,0.659 -1.0469,2.6091 -0.9996,3.243 0.0278,0.3606 0.7813,2.0007 2.2261,2.5346 0.3047,0.1138 0.6161,0.1702 0.9238,0.1702 0.8486,0 1.7109,-0.4337 2.561,-1.2901 1.3038,-1.3145 1.9765,-2.546 1.9442,-3.5628 -0.0237,-0.7779 -0.4436,-1.1578 -0.4608,-1.1736 l -0.1668,-0.1489 -0.004,-0.0408 0.0758,-0.1988 c 0.2019,-0.5138 1.0712,-3.132 -1.6543,-4.2154 -0.3349,-0.1338 -0.657,-0.2004 -0.9554,-0.2004 -0.2876,0 -0.5602,0.0615 -0.8122,0.1838 -0.5981,0.2913 -1.0425,1.0177 -1.3101,1.5759 -0.1432,0.2983 -0.4515,0.4923 -0.7864,0.4923 -0.1604,0 -0.317,-0.0445 -0.4537,-0.1282 -0.5461,-0.3349 -0.9475,-0.5116 -1.1607,-0.5116 -0.1775,0 -0.357,0.0278 -0.5302,0.083 -1.2022,0.3764 -2.2391,2.0079 -2.7714,4.365 -0.8631,3.816 4.1373,5.3288 4.2089,5.3767 0,0 -3.117,-0.5166 -4.4093,-2.498 -0.5732,-0.8795 -0.7343,-1.8998 -0.4781,-3.0326 0.1067,-0.468 0.1712,-0.7321 0.3306,-1.0899 -0.3292,-0.0306 -2.0178,-0.2961 -2.8143,-2.3663 -0.4029,-1.0476 -0.196,-2.2705 0.6168,-3.6358 0.9911,-1.6694 3.6274,-6.1016 2.6943,-7.4949 -0.1118,-0.1682 -0.2921,-0.2854 -0.526,-0.3613 l 0.002,-0.004 c 0,0 -0.699,-0.2256 -0.8966,-0.9189 -0.1967,-0.6933 -0.8529,-3.1965 -2.8916,-2.8164 0,0 -0.8057,0 -0.4572,1.1077 0.3462,1.1077 -0.1124,2.0071 -0.1124,2.0071 -0.1795,0.4716 -0.3012,0.8221 -0.3578,1.0426 -0.5846,2.2669 -1.2479,4.8358 -0.8014,8.2297 1.1527,8.7628 7.5013,11.5571 7.5806,11.6202 0,0 -1.8488,-0.5562 -3.7222,-2.2963 -1.7331,-1.6122 -3.9278,-4.5217 -4.5483,-9.233 -0.4637,-3.527 0.2469,-6.2813 0.8179,-8.4945 0.5253,-2.035 0.6261,-3.6022 0.3178,-4.9304 -0.3671,-1.5821 -1.3259,-2.8034 -2.9324,-3.7324 -0.2511,-0.1452 -0.757,-0.2925 -1.3209,-0.2925 -0.4101,0 -1.0026,0.0787 -1.497,0.4586 -0.6326,0.4858 -1.1028,1.5607 -1.1164,2.556 -0.0257,1.8533 0.8008,2.8752 1.4984,3.4069 0.9746,0.7414 1.9801,0.7986 2.2655,0.7986 0.1868,0 0.3521,-0.0201 0.4795,-0.0566 0.0872,-0.0258 0.1738,-0.0386 0.2576,-0.0386 0.2174,0 0.4136,0.0872 0.5667,0.2526 0.7743,0.8365 0.2641,3.9255 -0.229,5.3245 0.8008,1.3703 0.2706,2.5225 0.2641,2.5338 0,0 -0.2261,-4.4772 -8.0531,-7.1442 -2.5545,-0.8701 -4.5151,-1.3559 -6.1072,-1.7502 -3.1207,-0.7714 -4.7535,-1.1757 -6.013,-3.4956 -0.0902,-0.1661 -0.317,-0.191 -0.4458,-0.0529 -0.34,0.3621 -0.7414,0.9316 -0.8866,1.6957 -0.2248,1.185 0.1996,2.5138 1.2608,3.9507 l 0.4071,0.5517 0.0388,0.1311 -0.783,-0.1317 c -0.2511,-0.0424 -0.5838,-0.0681 -0.89,-0.0681 -0.4057,0 -1.0641,0.0444 -1.5471,0.2756 -0.1953,0.0937 -0.2225,0.3607 -0.0543,0.498 0.5981,0.4894 1.7774,1.3016 3.0145,1.3016 0.3893,0 0.7629,-0.0795 1.1085,-0.2355 1.1477,-0.5152 4.1968,-1.7123 7.718,-1.7123 4.2191,0 7.1538,2.0709 9.5529,5.4161 0.1296,0.1818 -0.1245,0.3958 -0.2797,0.2355 -1.7854,-1.8318 -4.6728,-4.7693 -9.3038,-4.9482 -0.1418,-0.005 -0.2878,-0.007 -0.4336,-0.007 -0.1676,0 -0.3329,0.004 -0.4966,0.01 -2.2063,0.0923 -4.3271,0.8394 -6.2083,1.9952 -2.4874,1.5277 -5.1571,2.3005 -7.9593,2.3005 -1.0599,0 -2.1096,-0.1137 -3.1213,-0.3379 -0.0617,-0.0128 -0.1238,-0.0193 -0.1868,-0.0193 -0.2554,0 -0.5045,0.1203 -0.6647,0.3236 -0.1554,0.1967 -0.2118,0.4493 -0.1532,0.6933 0.4201,1.7661 1.1734,2.8543 2.2389,3.233 0.2992,0.1059 0.6276,0.1588 0.9798,0.1588 3.0711,0 7.5105,-4.1038 7.7281,-3.6701 0.0844,0.1681 -0.7629,0.7691 -1.7639,1.5734 -0.5996,0.4809 -1.0355,1.1142 -1.2622,1.832 -0.2084,0.6639 -0.38,1.3532 -0.511,2.0473 -0.0249,0.1308 0.007,0.2582 0.0886,0.3576 0.0875,0.1044 0.2191,0.1675 0.3544,0.1675 0.1124,0 0.2183,-0.0422 0.3026,-0.1237 l 1.9085,-1.8055 0.1595,-0.0823 -0.3012,1.1034 c -1.1236,4.1095 0.6977,6.9324 2.4237,8.5777 0.1616,0.1537 0.3598,0.2352 0.573,0.2352 0.2562,0 0.5103,-0.12 0.6791,-0.3219 0.1633,-0.1961 0.2276,-0.4466 0.1811,-0.7048 -0.289,-1.5966 -0.7921,-3.2566 -1.4912,-4.9318 -1.2866,-3.0805 -0.3737,-5.6343 0.6188,-7.2343 1.057,-1.7052 2.2398,-2.3529 2.3428,-2.3178 0.212,0.0738 -4.6038,3.8162 -2.3199,9.2831 0.6055,1.4505 1.628,5.1606 5.9629,6.6284 0.0874,0.0286 0.1817,0.0277 0.2712,0.0277 0.4537,0 0.8917,-0.2468 1.1407,-0.6425 0.2432,-0.3828 0.2733,-0.8335 0.0844,-1.2349 -0.4809,-1.0183 -1.5693,-1.4777 -1.6158,-1.4964 l -0.43,-0.176 -0.0744,-0.0745 0.4158,-0.342 c 0.3205,-0.2612 0.6038,-0.6024 0.8422,-1.0117 0.1172,-0.2018 0.1186,-0.4331 0.004,-0.6333 -0.1168,-0.204 -0.3306,-0.3306 -0.5596,-0.3306 -0.0694,0 -0.1404,0.0122 -0.2112,0.0351 -0.4243,0.1401 -0.8622,0.2124 -1.3022,0.2124 -0.4229,0 -0.8473,-0.0666 -1.2608,-0.1982 -1.4412,-0.4609 -2.4968,-1.6744 -2.6248,-3.0191 -0.0724,-0.7561 -0.156,-3.3573 1.7775,-5.0853 1.0562,-0.9432 2.503,-1.4213 4.2998,-1.4213 0.8543,0 1.8012,0.1095 2.8164,0.3249 3.9277,0.8343 6.4559,3.3288 7.8857,5.2753 1.5542,2.1166 2.1789,4.0537 2.1667,4.1066 0,0 -0.8387,-1.8069 -2.4752,-3.8062 -1.472,-1.7974 -4.0065,-4.1051 -7.7225,-4.8951 -0.9687,-0.2047 -1.8683,-0.31 -2.6748,-0.31 -1.6184,0 -2.9087,0.4195 -3.8324,1.2444 -1.3438,1.2008 -1.6817,3.1122 -1.5485,4.4996 0.1008,1.0726 0.9631,2.0458 2.1438,2.4229 0.342,0.1087 0.6947,0.2112 1.0426,0.1645 1.9077,-0.2582 2.3233,-1.1255 3.1184,-1.7531 0.196,-0.1546 0.483,-0.004 0.4694,0.2454 l -0.0158,0.2791 c -0.003,0.0609 -0.0872,1.5057 -0.8035,2.8331 -0.3148,0.5831 -0.2204,1.2922 0.2426,1.806 0.6183,0.684 0.9017,1.4791 0.7964,2.3406 0.2497,-0.2189 0.4781,-0.3828 0.7207,-0.5166 0.6231,-0.342 1.3308,-0.5161 2.103,-0.5161 1.5148,0 3.3223,0.6655 5.3746,1.9759 3.5878,2.2941 7.177,3.4568 10.6669,3.4568 3.7052,0 5.9192,-1.3402 5.9778,-1.3467 0,0 -2.5158,2.0402 -5.9849,2.0402 -3.6237,0 -7.3353,-1.1986 -11.0355,-3.5629 -0.2632,-0.1682 -0.5267,-0.3284 -0.7843,-0.4767 -0.2633,-0.1495 -0.5639,-0.2296 -0.8694,-0.2296 -0.3213,0 -0.6397,0.0866 -0.9223,0.2491 -1.2158,0.7018 -1.9349,1.5641 -2.1375,2.5639 -0.0321,0.1602 -0.0521,0.3261 -0.0586,0.4943 -0.009,0.2327 0.0908,0.3864 0.1746,0.4752 0.1252,0.1288 0.2976,0.2019 0.4759,0.2019 0.2109,0 0.3957,-0.1002 0.5201,-0.2814 0.0809,-0.1186 0.1746,-0.2304 0.2799,-0.3306 0.443,-0.4272 1.0604,-0.6432 1.8318,-0.6432 1.0154,0 2.289,0.3793 3.7896,1.1256 1.6286,0.8115 3.5479,1.2223 5.7002,1.2223 4.1296,0 7.7904,-1.5386 7.8628,-1.5408 l -1.3775,0.8673 c -0.0229,0.01 -0.0559,0.028 -0.103,0.053 -2.0602,1.1034 -4.5833,1.3353 -6.3371,1.3353 -2.2669,0 -4.3042,-0.4416 -6.0551,-1.3138 -1.4154,-0.7041 -2.5854,-1.0619 -3.4785,-1.0619 -0.5811,0 -1.0369,0.1538 -1.3531,0.4594 -0.3049,0.2925 -0.4844,0.7585 -0.5381,1.3187 -0.0351,0.3779 0.3835,0.6262 0.704,0.4237 0.2355,-0.1482 0.4696,-0.2555 0.5882,-0.2555 0.6148,0 1.3998,0.3221 2.4187,0.7421 1.7375,0.7148 4.1137,1.6943 7.278,1.6943 0.2355,0 0.4767,-0.005 0.7148,-0.0164 3.4471,-0.1503 6.916,-1.8898 9.5186,-4.7722 2.7722,-3.0689 4.2383,-6.9796 4.0237,-10.7269 -0.1474,-2.5961 -0.8852,-4.4129 -2.1927,-5.3991 -0.4314,-0.3262 -0.6604,-0.6469 -0.5973,-0.8357 0.0156,-0.0458 0.0614,-0.1223 0.1996,-0.1223 0.1831,0 0.4736,0.143 0.8164,0.402 1.4777,1.1156 2.3071,3.1057 2.4681,5.915 0.1595,2.7843 -0.5488,5.6407 -2.0466,8.262 -0.1266,0.2231 -0.128,0.4744 -0.003,0.6896 0.1259,0.2183 0.3584,0.355 0.6038,0.355 0.0968,0 0.1925,-0.0207 0.2878,-0.0608 1.097,-0.4694 2.0923,-0.7077 2.9574,-0.7077 0.3227,0 0.6562,0.0186 0.9767,0.106 -1.0503,-0.5718 -1.5284,-1.1758 -1.3789,-1.7454 0.1568,-0.5988 0.9546,-0.9288 2.242,-0.9288 l 0.0308,0.0193 c 0.1588,-0.5424 0.3842,-0.9487 0.7026,-1.1949 -1.1779,-0.2447 -3.2701,-0.956 -4.0616,-2.9761 l -0.1688,-0.4343 0.002,-0.1067 0.5387,0.068 c 0.0552,0.007 0.3507,0.0402 0.7643,0.0402 0.7349,0 1.7503,-0.1017 2.4286,-0.5367 l -2.9181,-0.7299 -0.0172,-0.0486 0.073,-0.2885 z" transform="translate(-257.7876,-179.3933)" style="fill:#b08a64;fill-rule:evenodd"/>
  </g>
  <g id="architecture" class="logo-part is-dimmed">
    <path d="m 377.8231,275.0043 c -0.8572,0 -1.6515,-0.4334 -2.1245,-1.1598 -3.5541,-5.4462 -6.2219,-11.648 -7.9255,-18.4317 -0.1102,-0.4343 -0.0158,-0.8881 0.2562,-1.2436 0.274,-0.3578 0.6898,-0.5674 1.142,-0.5739 0.2253,-0.004 0.6791,-0.0144 0.6805,-0.0144 0.0551,0 0.075,0.004 0.0809,0.005 -0.002,0.003 -0.002,0.025 -0.0166,0.0795 -0.1588,0.6274 0.1474,1.3237 0.7142,1.6193 0.1403,0.073 0.2935,0.1124 0.4422,0.1124 0.3014,0 0.5754,-0.1546 0.7286,-0.4144 1.2141,5.3024 3.0997,10.2212 5.5535,14.6141 0.289,0.516 0.2732,1.147 -0.0416,1.6888 l -0.1266,0.2274 -10e-4,0.043 c 0,0 0.2189,0.2326 1.8746,1.0383 0.4288,0.2097 0.6805,0.6347 0.6584,1.1113 -0.0229,0.483 -0.319,0.8901 -0.7756,1.0605 -0.1874,0.0708 -0.3601,0.1251 -0.5166,0.1639 -0.1982,0.0493 -0.4,0.0742 -0.6027,0.0742 z" transform="translate(-257.7876,-179.3933)" style="fill:#b08a64;fill-rule:evenodd"/>
    <path d="m 383.4977,259.4115 c -0.0965,0 -0.1551,-0.0136 -0.1645,-0.2004 -0.0113,-0.219 0.0952,-0.39 0.3428,-0.5517 0.5702,-0.3722 1.2093,-0.5531 1.9542,-0.5531 0.101,0 0.2046,0.004 0.3099,0.01 l 0.0759,0.004 c 0.1172,0 0.1888,-0.0508 0.2117,-0.1532 0.038,-0.1732 -0.1174,-0.2219 -0.1933,-0.244 -0.0671,-0.0215 -0.1209,-0.0314 -0.173,-0.0416 -0.1947,-0.0393 -0.3801,-0.0578 -0.5639,-0.0578 -0.4136,0 -0.8572,0.0901 -1.3531,0.2755 -0.0852,0.0314 -0.154,0.0458 -0.2205,0.0458 -0.0264,0 -0.0515,-0.002 -0.0787,-0.006 -0.2039,-0.0343 -0.4108,-0.0515 -0.6174,-0.0515 -0.0623,0 -0.1246,0.002 -0.1854,0.004 -1.1479,-4.0036 -1.91,-8.4044 -2.242,-13.0591 0.1746,0.0388 0.3306,0.096 0.4266,0.3442 0.1174,0.3021 0.2856,0.5775 0.5024,0.8988 0.7069,1.0554 1.5677,1.6051 2.6276,1.6815 0.1036,0.007 0.2081,0.0116 0.3091,0.0116 0.1758,0 0.3505,-0.0116 0.5186,-0.0337 0.4359,4.0988 1.2266,7.9328 2.3207,11.3697 -0.0909,-0.0787 -0.2239,-0.1016 -0.3586,-0.1016 -0.06,0 -0.1201,0.004 -0.1809,0.0136 -0.5223,0.0759 -1.0562,0.1316 -1.5722,0.1852 -0.2325,0.0243 -0.727,0.0773 -0.727,0.0773 l -0.0408,0.0322 -0.2126,0.0252 c -0.2196,0.0257 -0.4385,0.0507 -0.659,0.0722 -0.0201,0.002 -0.0393,0.004 -0.0566,0.004 z" transform="translate(-257.7876,-179.3933)" style="fill:#b08a64;fill-rule:evenodd"/>
    <path d="m 380.2071,270.2662 c -0.0708,-0.0464 -0.1659,-0.0479 -0.2625,-0.0479 -0.1497,0 -0.2992,0.004 -0.443,0.0151 -0.0373,0.003 -0.0738,0.004 -0.1109,0.004 -0.5402,0 -1.0398,-0.2898 -1.3031,-0.7564 -3.804,-6.7243 -6.2054,-14.579 -7.1356,-23.344 -0.7465,-7.0355 -0.2998,-12.6963 -0.0737,-14.8036 0.9538,0.6254 1.9327,1.097 2.7893,1.3846 1.3101,0.4408 2.5087,1.0103 3.4626,1.6473 -0.1432,-0.0674 -0.3077,-0.0753 -0.4766,-0.0753 -2.3191,0.1483 -3.2037,0.7077 -3.5386,1.1515 -0.2525,0.3333 -0.2081,0.616 -0.2016,0.6469 l 0.0114,0.0557 0.0902,-0.004 c 0.0816,-0.0402 0.1852,-0.0603 0.3033,-0.0603 0.0558,0 0.1152,0.004 0.1775,0.013 0.7815,0.1081 1.3582,0.8221 1.3409,1.6601 -0.1079,5.2086 0.3012,15.4169 4.2542,25.2696 0.287,0.7127 0.5574,1.8046 0.2196,2.9531 -0.0357,0.1188 -0.0659,0.2412 -0.0888,0.3643 -0.2339,1.215 0.0974,2.5367 0.9854,3.9263 z" transform="translate(-257.7876,-179.3933)" style="fill:#b08a64;fill-rule:evenodd"/>
    <path d="m 384.7235,266.8683 c -0.0793,0 -0.1597,-0.0156 -0.2384,-0.0451 -1.4454,-0.561 -2.2604,-1.3653 -3.0024,-2.9695 l -0.1438,-0.3099 -0.0481,-0.0301 -0.3097,0.1917 c -0.1195,0.0781 -0.2434,0.116 -0.3714,0.116 -0.2627,0 -0.4973,-0.1545 -0.5975,-0.3929 -4.4615,-10.6569 -4.6055,-22.0422 -4.4601,-26.4444 1.1392,0.7612 2.4564,1.7996 3.2436,2.4201 0.2562,0.2024 0.5761,0.4034 0.9489,0.5996 -0.015,0.8294 0.001,1.7158 0.0371,2.6103 -0.304,-0.1453 -0.6426,-0.2039 -0.9681,-0.2039 -0.4315,0 -0.8623,0.1037 -1.2793,0.3098 -0.2262,0.1123 -0.3379,0.2211 -0.3643,0.3557 -0.0286,0.1546 0.0594,0.327 0.3026,0.596 0.3578,0.3937 0.7921,0.6963 1.2566,0.873 0.385,0.1475 0.7878,0.2434 1.1972,0.2856 0.264,4.0787 0.8886,8.0115 1.8318,11.6622 0.2024,0.7764 -0.083,1.5829 -0.7099,2.0044 -0.0915,0.0623 -0.1838,0.1303 -0.2733,0.2019 -0.1517,0.1215 -0.2983,0.2539 -0.4416,0.3819 -0.3841,0.3422 -0.7728,0.6907 -1.2614,0.8817 -0.1132,0.0443 -0.1704,0.1552 -0.1432,0.2783 0.0251,0.1159 0.1146,0.1889 0.2369,0.1976 l 0.0716,10e-4 c 0.0722,0 0.1452,-0.005 0.2418,-0.0158 0.6819,-0.0809 1.3631,-0.1568 2.045,-0.2325 0.0603,-0.007 0.1217,-0.0101 0.182,-0.0101 0.6789,0 1.2914,0.4251 1.5241,1.057 0.6038,1.6507 1.2957,3.2371 2.0521,4.7142 0.1024,0.1995 0.0959,0.4221 -0.0193,0.6075 -0.1138,0.1902 -0.3213,0.3083 -0.5395,0.3083 z" transform="translate(-257.7876,-179.3933)" style="fill:#b08a64;fill-rule:evenodd"/>
    <path d="m 366.4378,252.9759 c -0.101,0 -0.1361,-0.0309 -0.1596,-0.139 -0.257,-1.2371 -0.4737,-2.2754 -0.7012,-3.3208 -0.0195,-0.0917 -0.0108,-0.1153 -0.006,-0.1209 0.004,-0.005 0.0223,-0.0201 0.1132,-0.0201 h 0.1724 c 0.1675,1.1986 0.3943,2.4294 0.6497,3.6336 z" transform="translate(-257.7876,-179.3933)" style="fill:#b08a64;fill-rule:evenodd"/>
    <path d="m 371.3499,253.1838 c -0.2004,-0.1475 -0.4294,-0.2256 -0.6655,-0.2256 l -3.1385,0.0158 c -0.1961,0 -0.3685,-0.1395 -0.4079,-0.3326 -0.1832,-0.8773 -0.3533,-1.7761 -0.5051,-2.67 -0.0243,-0.148 0.0165,-0.2998 0.113,-0.4142 0.098,-0.1166 0.2418,-0.1831 0.3943,-0.1839 0.6455,0 1.9593,-0.004 1.9593,-0.004 0.0872,0 0.1002,0.0136 0.1008,0.0136 0,0.001 0.0121,0.0187 -0.01,0.1116 -0.1381,0.6091 0.1846,1.2995 0.7335,1.5736 0.1438,0.0708 0.2876,0.1059 0.4328,0.1059 0.2313,0 0.4473,-0.0938 0.6075,-0.2676 0.0946,0.8028 0.2355,1.5527 0.3858,2.2777 z" transform="translate(-257.7876,-179.3933)" style="fill:#b08a64;fill-rule:evenodd"/>
    <path d="m 381.2588,259.6708 c -0.045,0 -0.0793,-0.0144 -0.1037,-0.0408 -0.0401,-0.0459 -0.0529,-0.1339 -0.0373,-0.2477 0.0238,-0.1667 0.1138,-0.3063 0.2791,-0.4257 0.2706,-0.1954 0.5854,-0.34 0.9582,-0.4388 l 6e-4,0.0968 0.1031,0.3411 -0.1337,0.1104 c -0.2239,0.2168 -0.503,0.3907 -0.9067,0.5645 -0.0594,0.0266 -0.1138,0.0402 -0.1596,0.0402 z" transform="translate(-257.7876,-179.3933)" style="fill:#b08a64;fill-rule:evenodd"/>
    <path d="m 361.3963,251.9018 c -0.006,0.1416 0.377,2.7428 1.9099,4.2856 0.1602,0.1609 0.2483,0.3613 0.2483,0.5637 0,1.1193 0.1036,4.8559 1.4496,5.9099 l 0.1059,0.0824 0.008,-0.1589 c -0.0478,-0.1775 -1.1742,-4.3642 -0.2332,-6.0687 0.0594,-0.1081 0.0744,-0.2304 0.0407,-0.3428 -0.0308,-0.1081 -0.1022,-0.1967 -0.2004,-0.2511 -0.7097,-0.3886 -2.4415,-1.5578 -3.2107,-4.0209 l -0.007,-0.0235 z m 15.1842,33.6676 c -0.1996,0 -0.387,-0.081 -0.5294,-0.229 -3.0663,-3.1672 -5.8083,-6.6742 -8.1488,-10.4217 -0.9984,-1.5992 -1.5951,-3.4383 -1.729,-5.3188 -0.1116,-1.5935 0.0473,-2.7663 0.471,-3.4862 0.0651,-0.1101 0.0836,-0.2434 0.0501,-0.3643 -0.0331,-0.1158 -0.1089,-0.2095 -0.2148,-0.2669 -0.9087,-0.4844 -3.1278,-1.9527 -4.1109,-5.1034 h -0.1173 c -0.0178,0.0645 0.4609,3.4383 2.4221,5.3947 0.1919,0.191 0.2984,0.4608 0.2992,0.7586 0.001,0.5466 0.0229,1.6407 0.1546,2.815 0.007,0.058 -0.015,0.0951 -0.0337,0.1166 -0.03,0.0329 -0.0744,0.0535 -0.1189,0.0535 -0.0557,0 -0.1,-0.03 -0.1257,-0.0815 -4.2535,-8.6289 -6.4095,-17.9041 -6.4073,-27.5686 0.002,-8.023 1.4189,-15.7333 4.2126,-22.9146 0.1616,-0.4181 0.5401,-0.6777 0.9888,-0.6777 0.4444,0 0.8195,0.2568 0.9783,0.6712 0.732,1.8927 1.8732,3.4927 3.3888,4.7535 0.0937,0.0773 0.0982,0.1854 0.0716,0.2605 -0.0264,0.0701 -0.0923,0.146 -0.1996,0.146 -1.1263,-0.2177 -2.2046,-0.8252 -2.9202,-1.2968 -0.1039,-0.0685 -0.2226,-0.105 -0.3449,-0.105 -0.1947,0 -0.3829,0.0929 -0.5038,0.2497 -0.1175,0.1517 -0.156,0.3399 -0.1073,0.5294 0.1695,0.657 0.4722,1.4091 0.8965,2.2369 0.398,0.7714 0.5526,1.6243 0.4501,2.4681 -0.0838,0.6812 -0.1596,1.4118 -0.2253,2.1696 -0.0716,0.8286 -0.5353,1.5635 -1.2422,1.9643 -0.1818,0.103 -0.3592,0.2211 -0.5302,0.3527 -0.2613,0.2004 -0.5497,0.3641 -0.8824,0.5008 -0.2876,0.1195 -0.5911,0.2041 -0.8846,0.2862 -0.246,0.0696 -0.2712,0.2304 -0.2667,0.3227 0.003,0.0832 0.0428,0.2305 0.259,0.2735 0.1396,0.0271 0.2562,0.0436 0.3655,0.0501 1.6388,0.1067 2.9039,1.449 2.9096,3.0584 0.0115,3.4833 0.249,6.9666 0.7042,10.3528 0.0422,0.314 -0.0529,0.6311 -0.2627,0.8708 -0.2111,0.2418 -0.5146,0.3799 -0.8342,0.3799 h -0.2163 c -0.1545,0 -0.2482,0 -0.2998,0.0631 -0.0515,0.0651 -0.0308,0.158 0.002,0.3106 l 0.2046,0.9423 c 0.2282,1.0591 0.4651,2.1524 0.6919,3.2286 0.043,0.2089 0.1453,0.2941 0.3499,0.2941 l 0.7678,-0.002 c 0.3943,0 0.7314,0.2684 0.82,0.6542 1.7031,7.3825 4.5081,14.1009 8.3393,19.9706 0.1574,0.2406 0.1688,0.5347 0.0337,0.7858 -0.1325,0.2446 -0.3765,0.3907 -0.6527,0.3907 -0.7641,-0.0122 -1.5921,-0.1359 -2.4688,-0.3672 -0.133,-0.0349 -0.2689,-0.0529 -0.4028,-0.0529 -0.4844,0 -0.9509,0.2347 -1.2515,0.6276 -0.299,0.3935 -0.3964,0.8945 -0.2655,1.3718 0.443,1.6206 1.389,2.8328 2.8109,3.6008 0.3734,0.1336 0.7791,0.2004 1.2077,0.2004 0.6456,0 1.3639,-0.1518 2.1338,-0.4509 0.124,-0.0473 0.2506,-0.0717 0.3794,-0.0717 0.3113,0 0.6068,0.1424 0.8107,0.3915 0.2032,0.2469 0.2819,0.569 0.2183,0.8824 -0.2205,1.1012 -0.3335,2.2046 -0.3378,3.2793 -0.003,0.4695 -0.3864,0.7501 -0.7572,0.7501 z" transform="translate(-257.7876,-179.3933)" style="fill:#b08a64;fill-rule:evenodd"/>
  </g>
  <g id="culinary-culture" class="logo-part is-dimmed">
    <path d="m 389.3376,229.8334 c -0.2131,-0.234 -0.4271,-0.6647 -0.3569,-1.4397 0.1902,-2.0679 -2.1061,-5.3933 -3.2309,-6.0251 -0.7099,-0.3992 -0.6448,-2.1789 -0.5582,-2.8308 l 0.1495,-1.1384 -0.148,0.1037 -0.6175,0.7722 c -0.0574,0.0714 -1.3947,1.7846 -0.4931,3.9699 0.2296,0.5574 0.229,0.9288 0.1252,1.0497 -0.0307,0.0351 -0.0779,0.0538 -0.1402,0.0538 -0.0373,0 -0.0708,-0.007 -0.0923,-0.0116 -0.171,-0.0416 -0.3694,-0.1917 -0.4257,-0.4357 -0.036,-0.1446 -0.0609,-0.6505 -0.0861,-1.1393 -0.1515,-2.9367 -0.505,-9.8154 -4.2833,-11.2093 l -0.659,-0.2434 -6e-4,0.1268 0.2138,0.5659 c 0.2941,0.7793 0.9324,2.9925 0.3606,3.8621 -0.143,0.2174 -0.3649,0.3298 -0.6754,0.3442 -0.5303,0 -1.5842,-1.1637 -2.7779,-3.7655 -0.6933,-1.5097 -1.2815,-3.1598 -1.703,-4.7728 -0.9031,-3.4556 0.0679,-7.1651 2.5338,-9.6803 -0.1401,3.9357 0.7128,9.6237 3.4233,12.63 1.2057,1.3373 2.674,2.0436 4.3621,2.1008 2.8559,0.0973 4.3636,0.556 5.2015,1.5829 1.2007,1.4676 1.2609,4.3284 0.2232,10.5539 -0.2927,1.7596 -0.41,3.4326 -0.3449,4.976 z" transform="translate(-257.7876,-179.3933)" style="fill:#b08a64;fill-rule:evenodd"/>
    <path d="m 392.607,240.849 c -0.0673,0 -0.1345,-0.0201 -0.1925,-0.0586 -0.7006,-0.4581 -1.7316,-1.0055 -2.6791,-1.0055 -0.4586,0 -0.8608,0.1282 -1.1957,0.3799 -0.4708,0.355 -1.4089,0.5503 -2.6432,0.5503 -2.0781,0 -5.0521,-0.5817 -6.6705,-1.8582 -1.8262,-1.4383 -3.7268,-2.8817 -5.1156,-3.3267 0.6338,-0.2177 1.5906,-0.5388 2.5551,-0.5388 0.6941,0 1.3053,0.1645 1.8177,0.4915 l 1.6894,1.0777 -0.1389,-0.2548 -1.0956,-1.3373 c -0.0572,-0.0682 -1.4168,-1.6888 -5.049,-2.9095 -3.069,-1.0327 -7.3251,-4.2598 -8.7714,-7.417 -0.0651,-0.143 -0.0551,-0.2984 0.0286,-0.4278 0.0838,-0.131 0.2268,-0.2111 0.3751,-0.2111 0.0708,0 0.1401,0.0178 0.2067,0.0529 1.1564,0.614 2.1531,0.9237 2.9624,0.9237 0.3256,-0.007 0.5818,-0.201 0.682,-0.5059 0.1067,-0.3247 0.005,-0.6683 -0.2613,-0.8744 -1.0075,-0.7828 -2.4093,-2.0643 -3.3681,-3.7302 -1.1505,-2.0022 -1.3659,-4.0415 -0.6404,-6.0588 0.4065,-0.8065 0.8408,-1.6207 1.2887,-2.4186 0.3549,1.4635 0.8744,2.9253 1.4926,4.3399 v 0.0272 l 0.0244,0.0832 c 0.6341,1.3817 1.371,2.7892 2.2083,4.1681 l 0.0207,0.1625 0.0359,0.0393 0.0773,-0.013 c 0.3841,0.6548 0.8221,1.3225 1.2772,1.9722 0.0185,0.096 0.0365,0.1724 0.0428,0.1925 l 0.007,0.0272 0.0372,0.0357 0.0965,-0.025 c 1.3596,1.9471 2.9848,3.8777 4.7988,5.726 0.035,0.0665 0.0886,0.1596 0.0886,0.1596 l 0.0464,0.0235 c 0.642,0.6033 1.3053,1.2394 1.983,1.8605 0.1144,0.1918 0.2024,0.3198 0.2268,0.3529 l 0.0158,0.0221 0.0487,0.0201 0.0987,-0.0724 c 1.995,1.8261 4.2304,3.5772 6.6083,5.203 -0.1497,-0.013 -0.3048,-0.0158 -0.4631,-0.0158 -0.148,0 -0.2998,0.003 -0.4507,0.003 -1.1772,0 -2.8953,-0.1823 -4.3943,-1.0475 l -0.1726,-0.0995 0.0767,0.2032 c 0.9124,1.3024 3.3296,1.6458 4.4795,1.6458 0.3728,0 0.747,-0.0164 1.1097,-0.0501 0.0572,-0.006 0.1166,-0.008 0.1761,-0.008 0.3284,0 0.6576,0.0866 0.9531,0.2511 -0.1231,-0.006 -0.2655,-0.008 -0.4243,-0.008 -0.4386,0 -0.9968,0.0173 -1.5986,0.0173 -1.4126,0 -3.2379,-0.0994 -3.9071,-0.5733 l -0.0929,0.0739 c 0.8114,0.8062 2.1574,1.1963 4.0014,1.1963 1.3783,0 2.6055,-0.0951 2.9489,-0.1245 l 0.2641,0.1703 c -0.7499,0.0323 -1.9213,0.1317 -3.1872,0.1317 -1.4174,0 -2.6211,-0.1246 -3.5765,-0.3686 l -0.3133,-0.0809 0.2598,0.2134 c 1.5156,0.8708 2.4294,0.9359 3.6486,0.9359 1.97,0 3.7339,-0.2426 4.0674,-0.2913 l 0.1789,0.1152 c -0.6678,0.1418 -2.0724,0.4645 -3.9229,0.4645 -1.2128,0 -2.4465,-0.1367 -3.6643,-0.4065 l -0.2576,-0.0572 0.2061,0.1889 c 1.476,0.9024 2.6168,0.9768 3.7509,0.9768 1.7146,0 3.0504,-0.262 3.8697,-0.4817 0.1732,-0.0465 0.3507,-0.0708 0.531,-0.0708 0.3522,0 0.7027,0.0923 1.0155,0.2661 0.8565,0.4773 1.5249,0.8201 1.9348,1.0248 0.1948,0.0973 0.312,0.3034 0.3012,0.5259 l -0.004,0.0852 c -0.01,0.2169 -0.1931,0.3471 -0.3635,0.3471 z" transform="translate(-257.7876,-179.3933)" style="fill:#b08a64;fill-rule:evenodd"/>
    <path d="m 393.067,239.3094 c -1.5405,-0.762 -6.8243,-3.5326 -12.3449,-8.2176 -1.3509,-1.1456 -2.2862,-2.6582 -2.7055,-4.3736 -0.415,-1.6985 -0.7614,-3.806 -0.4917,-7.693 l -0.1095,-0.0414 c -1.0217,4.3706 -0.3233,7.6186 0.4373,9.5764 -0.1975,-0.2655 -0.4373,-0.5024 -0.6697,-0.7349 -0.0674,-0.0693 -0.1217,-0.146 -0.1633,-0.2312 -0.5,-1.044 -1.8304,-3.814 -1.1528,-10.5961 l -0.1095,-0.0458 c -1.1505,4.2377 -0.5953,7.5178 0.0674,9.5279 -0.1167,-0.2061 -0.2856,-0.3923 -0.4643,-0.5919 -0.0696,-0.1503 -1.7562,-3.8417 -0.7321,-10.7271 l -0.1075,-0.0507 c -1.3517,4.2984 -0.787,7.7939 -0.3326,9.4955 l -0.1073,-0.2124 c -0.3163,-0.3878 -0.5481,-0.8645 -0.6678,-1.3797 -0.4479,-1.9326 -0.7884,-4.5953 0.088,-9.688 l -0.1044,-0.0537 c -1.4726,4.0458 -1.1284,7.5571 -0.7958,9.2924 -0.2961,-0.5395 -0.5172,-1.1363 -0.5894,-1.7482 -0.2162,-1.8282 -0.2771,-4.8765 0.6639,-9.0111 l -0.1016,-0.0601 c -1.5621,3.7067 -1.4755,7.1799 -1.2866,8.9217 -0.3477,-0.6806 -0.5716,-1.4432 -0.5974,-2.2233 -0.0702,-2.0637 0.0185,-4.5274 1.1185,-8.5483 l 0.0306,-0.0637 -0.0923,-0.075 c -1.6929,3.4649 -1.8253,6.9732 -1.7574,8.7571 -0.2154,-0.5495 -0.3521,-1.1535 -0.3414,-1.7624 0.028,-1.6136 0.2785,-4.9095 1.6394,-8.8659 l -0.0937,-0.0702 c -1.8483,3.2617 -2.1954,6.8481 -2.2398,8.6963 -0.2432,-0.6868 -0.3598,-1.4332 -0.2882,-2.1673 0.1681,-1.6716 0.6653,-4.9919 2.1288,-8.4373 l -0.0909,-0.0773 c -2.0087,3.0404 -2.5848,6.7199 -2.7515,8.6434 l -0.0694,0.002 -0.9466,-3.5492 c -0.0595,-0.2169 -0.0294,-0.4394 0.0809,-0.6274 0.9308,-1.5872 2.5945,-3.9314 3.8253,-5.6188 0.2019,-0.2755 0.5096,-0.4329 0.8451,-0.4329 0.4594,0 0.9661,0.312 1.047,0.9081 0.314,2.3006 1.1856,5.2042 2.2746,7.5793 0.7165,1.5578 2.1081,4.1711 3.3956,4.1711 0.5888,-0.0251 1.0004,-0.247 1.2716,-0.6598 0.1401,-0.2126 0.2381,-0.4809 0.2904,-0.7986 0.0816,-0.4902 0.4909,-0.7142 0.8371,-0.7142 0.3335,0 0.6075,0.1897 0.7329,0.5073 0.971,2.4852 1.1405,5.7848 1.2322,7.558 0.0329,0.6418 0.055,1.0596 0.1037,1.2643 0.1109,0.4665 0.4787,0.8407 0.9389,0.9517 0.085,0.0201 0.1696,0.0308 0.2532,0.0308 0.2683,0 0.5066,-0.1059 0.6712,-0.2969 0.2212,-0.2584 0.3985,-0.7757 -0.0106,-1.7682 -0.259,-0.6261 -0.3243,-1.271 -0.1947,-1.915 0.013,0.6692 0.231,1.5457 0.8801,1.9108 0.9803,0.5517 3.0369,3.6235 2.8781,5.3553 -0.1124,1.2306 0.3549,1.8669 0.7671,2.1832 0.2168,0.1667 0.3592,0.4385 0.3992,0.7657 0.5288,4.3391 2.5089,6.5123 3.3361,7.245 0.1823,0.1618 0.3312,0.4795 0.276,0.7849 z" transform="translate(-257.7876,-179.3933)" style="fill:#b08a64;fill-rule:evenodd"/>
    <path d="m 397.7061,225.5389 c -0.4894,0 -1.0212,-0.3521 -1.0411,-1.004 -0.0795,-2.5874 -0.1404,-4.9322 -0.1803,-6.971 -0.0187,-0.9732 0.2032,-1.6214 0.6782,-1.9829 0.3372,-0.2554 0.8151,-0.3799 1.4585,-0.3799 1.3387,0 3.1685,0.5503 4.9372,1.0813 0,0 0.6862,0.2067 0.9976,0.2976 0.4937,0.1446 0.8501,0.5489 0.9331,1.0555 0.0809,0.5031 -0.1266,0.9954 -0.543,1.2858 -2.458,1.7124 -4.6177,3.7984 -6.4203,6.2004 -0.2024,0.2692 -0.4929,0.4172 -0.8199,0.4172 z" transform="translate(-257.7876,-179.3933)" style="fill:#b08a64;fill-rule:evenodd"/>
    <path d="m 386.6746,244.598 c -0.3736,-0.0166 -0.7521,-0.0257 -1.1185,-0.0351 l -0.2154,-0.005 c 0.006,-0.2698 -0.0107,-0.5503 -0.0257,-0.8144 0.009,0 0.0186,8e-4 0.0286,8e-4 0.0894,0 0.2024,-0.0114 0.3204,-0.0114 0.0996,0 0.2041,0.008 0.3114,0.0236 0.2675,0.0415 0.6197,0.2462 0.8036,0.6941 0.0394,0.0965 0.0272,0.1217 0.0244,0.1259 -0.001,0.003 -0.0164,0.0221 -0.1016,0.0221 z" transform="translate(-257.7876,-179.3933)" style="fill:#b08a64;fill-rule:evenodd"/>
    <path d="m 385.5083,246.3132 c 0.2318,-0.0574 0.4486,-0.2103 0.6253,-0.4243 0.0509,-0.0572 0.1325,-0.1475 0.0509,-0.2477 -0.0365,-0.045 -0.0795,-0.0543 -0.1087,-0.0543 -0.0473,0 -0.088,0.0235 -0.1197,0.043 -0.1988,0.1065 -0.3635,0.1616 -0.5223,0.1846 0.006,-0.2641 -0.0178,-0.5447 -0.0365,-0.813 l 0.2548,0.0379 0.5146,0.0158 c 0.1902,0.006 0.3791,0.015 0.5695,0.0264 0.0473,0.003 0.0802,0.0144 0.0938,0.0308 0.009,0.0122 0.0107,0.0329 0.006,0.0623 -0.1095,0.5396 -0.2568,1.0998 -0.7269,1.4919 -0.156,0.1296 -0.3313,0.2332 -0.5353,0.3156 -0.0221,-0.2276 -0.0451,-0.4507 -0.0651,-0.669 z" transform="translate(-257.7876,-179.3933)" style="fill:#b08a64;fill-rule:evenodd"/>
    <path d="m 369.9313,234.6218 c -0.3083,-0.4651 -0.7899,-0.729 -1.3594,-0.7462 -0.9854,-0.03 -1.9787,-0.1022 -2.9375,-0.171 -0.005,-0.4215 0.0178,-0.873 0.0444,-1.3209 0.2726,-0.0294 0.5724,-0.0574 0.87,-0.0574 0.4158,0 0.8365,0.0544 1.2531,0.1611 0.098,0.0286 0.1481,0.0422 0.1982,0.0422 0.0943,0 0.1639,-0.0501 0.2004,-0.1473 0.0764,-0.2041 -0.1053,-0.2842 -0.1925,-0.3235 -0.4473,-0.216 -0.8903,-0.3213 -1.3947,-0.3406 -0.0923,-0.004 -0.1846,-0.006 -0.2755,-0.006 -0.2176,0 -0.4365,0.0122 -0.6533,0.0357 0.1724,-2.0929 0.372,-3.6458 0.4779,-4.3821 1.0405,1.3002 2.5038,2.5775 4.0723,3.6093 -0.1002,0.7385 -0.2211,1.9915 -0.3034,3.6472 z" transform="translate(-257.7876,-179.3933)" style="fill:#b08a64;fill-rule:evenodd"/>
    <path d="m 379.8681,244.3055 c -0.5866,-0.1539 -0.9953,-0.4121 -1.2843,-0.8087 -0.0974,-0.1336 -0.143,-0.2389 -0.0802,-0.3576 0.0615,-0.1138 0.1739,-0.1653 0.3629,-0.1681 h 6e-4 c 0.1797,0 0.3499,0.0485 0.5331,0.148 0.1381,0.0751 0.272,0.1688 0.4257,0.2933 0.005,0.2755 0.0224,0.5804 0.0422,0.8931 z" transform="translate(-257.7876,-179.3933)" style="fill:#b08a64;fill-rule:evenodd"/>
    <path d="m 384.8961,247.1668 c -0.0158,-0.0258 -0.0521,-0.0272 -0.0917,-0.0272 h -0.0128 c -0.0529,0 -0.1052,-0.002 -0.1503,-0.006 -0.7612,-0.1044 -1.2022,-0.4894 -1.5326,-0.8515 -0.3499,-0.3829 -0.6004,-0.8365 -0.8181,-1.2702 -0.0292,-0.058 -0.03,-0.0823 -0.03,-0.0888 0.004,0 0.0201,-0.005 0.0566,-0.005 l 0.1889,0.0114 c 0.191,0.0122 0.3815,0.0243 0.5695,0.0243 0,0 0.0832,-6e-4 0.0846,-6e-4 0.1345,0 0.1702,0.0329 0.2002,0.171 0.1667,0.7655 0.7357,1.2651 1.485,1.3016 -0.004,0.224 0.0227,0.4787 0.0507,0.7406 z" transform="translate(-257.7876,-179.3933)" style="fill:#b08a64;fill-rule:evenodd"/>
    <path d="m 384.7521,245.6496 c -0.1532,-0.1195 -0.2461,-0.2984 -0.2834,-0.5453 -0.007,-0.0507 8e-4,-0.0693 0.007,-0.0764 0.0122,-0.0136 0.045,-0.0209 0.0994,-0.0209 l 0.1274,0.003 c 0.0128,0.1925 0.0308,0.4122 0.0493,0.6396 z" transform="translate(-257.7876,-179.3933)" style="fill:#b08a64;fill-rule:evenodd"/>
    <path d="m 383.0963,244.4743 c -0.2848,-0.0201 -0.5124,-0.0294 -0.7221,-0.0294 l -0.1152,8e-4 c -0.1759,0 -0.2639,-0.0479 -0.3406,-0.1803 -0.304,-0.526 -0.7176,-0.9517 -1.2286,-1.2631 -0.0608,-0.0371 -0.1237,-0.07 -0.1854,-0.103 -0.0549,-0.8937 -0.0758,-1.7781 -0.0793,-2.6203 1.1463,0.5288 2.6661,0.9022 4.1353,1.0489 -0.0223,0.2669 -0.0144,0.8409 0.0215,1.6495 -0.5497,0.1874 -0.9775,0.6525 -1.1864,1.2809 -0.0523,0.1608 -0.1211,0.2174 -0.259,0.2174 z" transform="translate(-257.7876,-179.3933)" style="fill:#b08a64;fill-rule:evenodd"/>
    <path d="m 370.6049,248.942 c -0.2046,-0.1395 -0.4385,-0.2132 -0.6811,-0.2132 l -0.0566,0.001 c -0.5008,0.0229 -1.0112,0.0235 -1.5041,0.0235 -0.3249,0 -0.6612,8e-4 -0.991,0.007 -0.2641,0.006 -0.5274,0.006 -0.7921,0.007 l -0.1639,6e-4 c -0.6998,-4.7156 -0.9854,-9.5872 -0.8266,-14.4573 l 0.725,0.0753 1.3803,0.0872 c 0.0909,0.006 0.1402,0.0136 0.1503,0.0257 0,0 0.0122,0.0244 -0.0345,0.1345 -0.3018,0.7264 -0.009,1.6917 0.6548,2.1497 0.2126,0.1458 0.448,0.2245 0.6842,0.2245 0.2868,0 0.5559,-0.1144 0.7569,-0.3219 -0.1344,4.098 0.1167,8.2276 0.6984,12.2555 z" transform="translate(-257.7876,-179.3933)" style="fill:#b08a64;fill-rule:evenodd"/>
    <path d="m 364.5076,233.6249 c -0.1438,-0.009 -0.2282,-0.0365 -0.2661,-0.0846 -0.038,-0.0493 -0.043,-0.1359 -0.0165,-0.2825 0.0293,-0.1568 0.1045,-0.2871 0.224,-0.3858 0.1582,-0.1309 0.347,-0.2325 0.5616,-0.3049 -0.0566,0.3379 -0.0744,0.7113 -0.0908,1.0864 z" transform="translate(-257.7876,-179.3933)" style="fill:#b08a64;fill-rule:evenodd"/>
  </g>
  <g id="penmanship" class="logo-part is-dimmed">
    <path d="m 409.1318,188.0879 c 4.4235,8.5397 2.2404,10.3766 1.0684,11.3646 -0.4651,0.3915 -0.9919,0.8345 -0.642,1.5249 0.3663,0.7213 1.0055,1.1514 1.7075,1.1514 0.0844,0 0.173,-0.006 0.2596,-0.0193 1.2809,-0.1911 2.2935,-1.711 2.7077,-4.0659 0.7751,-4.4028 -4.3176,-10.1089 -4.5344,-10.35 l -1.8041,-1.9927 z m -1.4941,23.07 c 0.3262,0 0.6412,0.0156 0.9367,0.0473 0.4221,0.045 0.8092,0.2547 1.0897,0.5896 l 0.3844,0.4607 0.007,-0.2031 -0.2554,-1.1207 c -0.015,-0.0722 -0.4201,-1.7774 -2.33,-2.9675 -1.1836,-0.7377 -2.6712,-1.1111 -4.4229,-1.1111 -1.1949,0 -2.5324,0.1744 -3.9756,0.518 -1.7939,0.4272 -3.5221,0.644 -5.1351,0.644 -5.2085,0 -7.5835,-2.2133 -7.607,-2.2355 l -1.1507,-1.0963 0.0436,0.2327 0.548,1.2543 c 1.3183,3.0205 4.8345,4.7535 9.648,4.7535 0.4108,0 0.8317,-0.0127 1.2501,-0.0385 0.0323,-0.002 0.0631,-0.004 0.0954,-0.004 0.3312,0 0.6553,0.1053 0.9409,0.3055 0.6797,0.4767 1.8304,1.0471 3.4432,1.0471 0.7558,0 1.5442,-0.1288 2.3442,-0.3808 1.4678,-0.4616 2.8623,-0.6955 4.1454,-0.6955 z m -15.1879,24.1447 c -0.574,0 -1.2925,-0.2941 -1.5886,-1.1199 -0.9181,-2.5645 -1.0842,-5.6637 -0.4923,-9.2107 1.0884,-6.5354 0.9925,-9.4419 -0.37,-11.1092 -0.9811,-1.2008 -2.6369,-1.7331 -5.7174,-1.8378 -1.4933,-0.0515 -2.7957,-0.6811 -3.8712,-1.8726 -2.405,-2.6683 -3.3862,-8.0214 -3.2902,-12.1425 0.009,-0.4422 0.1902,-0.8535 0.5081,-1.1598 0.3391,-0.3256 0.7513,-0.4931 1.185,-0.4931 0.6367,0 1.2065,0.3521 1.4862,0.9174 0.8543,1.7294 1.9563,2.898 3.278,3.4698 0.5954,0.2576 1.2343,0.3878 1.899,0.3878 1.2302,0 2.5819,-0.4458 4.0166,-1.3259 1.3288,-0.8165 2.4071,-1.2128 3.2965,-1.2128 0.2514,0 0.4903,0.0328 0.7092,0.098 1.2458,0.3671 1.902,1.7344 2.5961,3.1827 0.7994,1.6645 1.6243,3.3862 3.4669,3.605 0.2097,0.0244 0.4244,0.0374 0.6406,0.0374 2.2367,0 4.7298,-1.3367 6.3492,-3.4041 1.7452,-2.2275 2.2061,-4.9531 1.2601,-7.4784 -0.9453,-2.5266 -3.059,-4.1294 -4.7572,-5.4168 -1.386,-1.0497 -2.5823,-1.9564 -2.6548,-2.9783 -0.0442,-0.6296 0.3307,-1.3351 1.1451,-2.158 l 1.6135,-1.628 -0.3077,0.111 -1.7223,0.9687 c -0.1389,0.0773 -3.4105,1.9335 -3.4827,4.3323 -0.0373,1.149 0.6633,2.1953 2.0773,3.1097 5.0519,3.2659 4.3999,5.2072 4.1216,6.0358 -0.1174,0.3499 -0.6004,0.9282 -1.4505,1.0834 -0.1359,0.0251 -0.2811,0.0373 -0.4286,0.0373 -0.9797,0 -2.5904,-0.5424 -4.6997,-3.1286 -1.0763,-1.3188 -2.2456,-1.9592 -3.5773,-1.9592 -1.7537,0 -3.444,1.1213 -4.9352,2.111 -1.0962,0.7284 -2.116,1.4054 -2.8586,1.4054 -0.0481,0 -0.0937,-0.004 -0.1376,-0.009 -0.8379,-0.1045 -1.8675,-0.4187 -3.0626,-0.931 -0.5509,-0.2376 -0.928,-0.7341 -1.0053,-1.3311 -0.0767,-0.586 0.1517,-1.1533 0.614,-1.5168 5.386,-4.2476 11.3754,-7.5551 17.8033,-9.8299 6.6527,-2.3548 13.6302,-3.5485 20.7401,-3.5485 0.747,0 1.4963,0.013 2.2433,0.0388 0.7434,0.0271 1.3487,0.5064 1.542,1.2229 0.1968,0.7326 -0.0931,1.4683 -0.7371,1.8732 -1.4318,0.9016 -2.646,2.0653 -3.6107,3.4578 -4.6562,6.7283 -2.4164,16.6418 -1.2665,19.5856 2.0444,5.2209 -1.4305,8.3107 -1.5785,8.4403 l -0.0215,0.0171 -0.015,0.0509 0.0866,0.0994 -0.0716,-0.0337 c -0.5696,-0.1523 -0.9102,-0.3326 -1.0333,-0.5509 -0.1438,-0.2604 -0.0144,-0.6819 0.1509,-1.215 0.2069,-0.6684 0.4637,-1.5 0.3434,-2.5174 -0.3111,-2.639 -2.631,-4.0651 -2.7298,-4.1245 l -0.9081,-0.541 0.0244,0.1673 0.3914,0.8223 c 0.0858,0.1824 2.0651,4.4903 0.1002,6.0071 -1.3452,1.0391 -1.9192,2.0489 -2.1632,2.7136 -0.1574,0.4336 -0.4943,0.7785 -0.9217,0.9466 -0.7242,0.2856 -1.4489,0.6083 -2.1566,0.9582 l 0.003,-0.0272 0.0173,-0.0251 c -1.4734,-0.1503 -3.1501,-0.6548 -4.7722,-1.1428 -1.9057,-0.573 -3.7046,-1.1134 -5.1365,-1.1134 -0.8034,0 -1.4196,0.171 -1.8833,0.5223 -0.6647,0.5061 -0.9761,1.3404 -0.9538,2.5525 0.0915,4.6513 0.2633,9.5399 0.3134,10.9267 0.01,0.2769 -0.0509,0.5489 -0.1817,0.8073 -0.7743,1.5355 -1.4104,3.1519 -1.8885,4.8035 -0.2083,0.7212 -0.8294,1.1872 -1.5827,1.1872 z" transform="translate(-257.7876,-179.3933)" style="fill:#b08a64;fill-rule:evenodd"/>
    <path d="m 422.2366,213.9623 c -0.4606,-0.0229 -0.9115,-0.0336 -1.3458,-0.035 1.6622,-1.0155 4.5788,-3.5321 5.592,-8.4124 0.0345,-0.1608 0.0674,-0.3269 0.1002,-0.4979 0.0465,-0.2375 0.2027,-0.4357 0.4193,-0.5302 1.0191,-0.443 3.0714,-1.2215 5.3754,-1.4511 l 0.0272,-0.002 0.0422,-0.0314 -0.0615,-0.6219 -0.0322,-0.0414 c -1.7781,0.1781 -3.3554,0.6475 -4.3722,1.0103 -0.0801,0.0286 -0.1631,0.0436 -0.2461,0.0436 -0.2125,0 -0.4121,-0.0951 -0.5517,-0.2598 -0.1387,-0.1659 -0.1953,-0.3748 -0.1588,-0.5903 0.2347,-1.3667 0.4959,-2.8993 0.84,-4.4851 0.0566,-0.2598 0.249,-0.4659 0.5024,-0.5404 1.5836,-0.4543 5.4547,-1.514 7.2072,-1.514 h 0.0286 l 0.0595,-0.0271 0.003,-0.6248 -0.0272,-0.0444 h -0.063 c -1.4698,0 -4.2004,0.6598 -6.2312,1.213 -0.0643,0.0178 -0.1303,0.0272 -0.194,0.0272 -0.221,0 -0.435,-0.1082 -0.5724,-0.2885 -0.1367,-0.1803 -0.1809,-0.4085 -0.1209,-0.6282 0.2698,-0.9876 0.5688,-1.9227 0.8873,-2.7835 0.0565,-0.154 0.1596,-0.2806 0.3014,-0.3672 0.8606,-0.5282 3.2271,-1.8097 6.5981,-2.3099 l 0.028,-0.004 0.0385,-0.0337 -0.0914,-0.6175 -0.0337,-0.0393 c -1.5864,0.2353 -3.0848,0.6404 -4.4967,1.2107 -0.0915,0.0365 -0.1875,0.0558 -0.282,0.0558 -0.2511,0 -0.4886,-0.1381 -0.6203,-0.3621 -0.133,-0.2253 -0.1338,-0.4894 -0.005,-0.7249 0.9681,-1.7503 3.4089,-3.7067 5.2859,-5.0403 1.3653,-0.9712 2.9738,-1.4834 4.6497,-1.4834 1.014,0 2.0079,0.188 2.9554,0.5594 l 0.0622,0.0252 c 0.2769,0.1087 0.4501,0.3613 0.453,0.6576 0.003,0.3083 -0.1739,0.5738 -0.4609,0.6933 -2.5489,1.057 -5.6959,3.7489 -6.2125,10.5711 -1.1171,14.7336 -15.09,18.2656 -15.2324,18.2993 l -0.0249,0.007 z" transform="translate(-257.7876,-179.3933)" style="fill:#b08a64;fill-rule:evenodd"/>
    <path d="m 400.1787,204.8182 c -0.1817,0 -0.3626,-0.01 -0.5359,-0.03 -1.4618,-0.1739 -2.1703,-1.6515 -2.9216,-3.2158 -0.7292,-1.5213 -1.4834,-3.0933 -3.0254,-3.5493 -0.2819,-0.083 -0.5854,-0.1251 -0.901,-0.1251 -1.0253,0 -2.2247,0.43 -3.6651,1.3143 -1.3217,0.8108 -2.5511,1.2224 -3.6545,1.2224 -0.5702,0 -1.1148,-0.1102 -1.6199,-0.3293 -0.5075,-0.2188 -0.9882,-0.5523 -1.4312,-0.9916 -0.4122,-0.4079 -0.5296,-0.9639 -0.3134,-1.4885 0.2217,-0.5403 0.7278,-0.8888 1.2887,-0.8888 0.1553,0 0.3105,0.0258 0.4659,0.0759 0.6633,0.2182 1.2701,0.362 1.8054,0.4294 0.0729,0.009 0.1487,0.0136 0.226,0.0136 0.9489,0 2.0115,-0.7041 3.2395,-1.5207 1.4684,-0.973 2.9838,-1.9785 4.5274,-1.9785 1.1355,0 2.1367,0.5517 3.0626,1.6866 1.8339,2.2477 3.5884,3.3868 5.2193,3.3868 0.1939,0 0.3872,-0.0172 0.5732,-0.0507 1.0734,-0.1968 1.7825,-0.9396 1.9858,-1.5465 0.5123,-1.5298 0.4736,-3.6894 -4.4045,-6.8421 -1.1949,-0.7728 -1.7868,-1.6152 -1.761,-2.5038 0.0316,-1.0341 0.8846,-2 1.5929,-2.6276 -0.1888,0.3292 -0.2497,0.6854 -0.2262,1.029 0.0946,1.3367 1.4075,2.332 2.9282,3.4848 1.7116,1.2973 3.6515,2.7671 4.5259,5.1056 1.1743,3.1385 -0.2188,5.6101 -1.1549,6.805 -1.469,1.8749 -3.8112,3.1349 -5.8262,3.1349 z" transform="translate(-257.7876,-179.3933)" style="fill:#b08a64;fill-rule:evenodd"/>
    <path d="m 411.2635,201.433 c -0.4416,0 -0.8351,-0.2805 -1.0848,-0.7714 -0.0781,-0.1531 -0.0759,-0.2182 0.4687,-0.677 1.1392,-0.9589 3.2594,-2.7434 0.3848,-9.5113 1.3568,2.0795 2.9418,5.0332 2.5168,7.4498 -0.4243,2.4093 -1.3768,3.3868 -2.1253,3.4978 -0.055,0.008 -0.1073,0.0121 -0.1602,0.0121 z" transform="translate(-257.7876,-179.3933)" style="fill:#b08a64;fill-rule:evenodd"/>
    <path d="m 440.0732,193.041 c -0.3649,0 -0.7162,-0.1809 -0.9359,-0.4838 -0.2148,-0.2941 -0.2728,-0.6633 -0.1604,-1.0117 l 0.0665,-0.2039 c 1.085,-3.2044 4.1154,-5.3567 7.5407,-5.3567 1.301,0 2.6018,0.3241 3.7604,0.9367 2.2304,1.1799 3.8961,2.1344 4.9523,2.8379 0.5296,0.3519 0.5911,0.8965 0.4724,1.2894 -0.1245,0.4164 -0.5109,0.8365 -1.0935,0.8365 -0.0821,0 -0.1667,-0.009 -0.2511,-0.0257 -1.6673,-0.3292 -3.3632,-0.4966 -5.044,-0.4966 -3.8433,0 -6.9589,0.8714 -8.8952,1.6014 -0.1345,0.0507 -0.2735,0.0765 -0.4122,0.0765 z" transform="translate(-257.7876,-179.3933)" style="fill:#b08a64;fill-rule:evenodd"/>
    <path d="m 401.1501,211.5358 c -0.3799,0 -0.7541,-0.0359 -1.1119,-0.1059 -0.2927,-0.058 -0.4266,-0.2998 -0.4308,-0.5138 -0.003,-0.1933 0.1008,-0.4458 0.4042,-0.516 0.8744,-0.2047 1.6673,-0.4564 2.3527,-0.7477 0.7923,-0.3377 1.5895,-0.5081 2.3716,-0.5081 1.6671,0 2.9517,0.7607 3.7345,1.399 -0.252,-0.073 -0.5388,-0.0852 -0.8357,-0.0852 -1.3432,0 -2.8079,0.2446 -4.3493,0.7312 -0.7334,0.2305 -1.4505,0.3465 -2.1353,0.3465 z" transform="translate(-257.7876,-179.3933)" style="fill:#b08a64;fill-rule:evenodd"/>
    <path d="m 395.3729,210.2476 c -2.1955,0 -6.187,-0.4088 -8.2549,-3.1422 1.2379,0.76 3.4499,1.6186 6.7458,1.6186 1.6821,0 3.4882,-0.2275 5.3695,-0.6762 1.3917,-0.3312 2.6763,-0.4994 3.8148,-0.4994 1.6113,0 2.971,0.3357 4.0407,0.9982 0.5073,0.3134 0.9424,0.7012 1.2974,1.1521 -0.7708,-0.5882 -2.071,-1.2422 -3.6852,-1.2422 -0.8645,0 -1.7417,0.1866 -2.6091,0.5546 -1.8174,0.7742 -4.3298,1.2365 -6.719,1.2365 z" transform="translate(-257.7876,-179.3933)" style="fill:#b08a64;fill-rule:evenodd"/>
    <path d="m 414.3588,214.6692 c -0.3771,0 -0.7114,-0.2369 -0.8487,-0.6012 -0.1345,-0.3533 -0.043,-0.717 0.244,-0.971 0.1353,-0.1188 0.2783,-0.2369 0.4272,-0.3513 1.733,-1.3381 1.0984,-4.1438 0.5653,-5.6973 0.5489,0.6183 1.288,1.5935 1.4426,2.8951 0.1016,0.8702 -0.1209,1.5921 -0.3185,2.229 -0.2061,0.6663 -0.3827,1.2408 -0.0929,1.7604 0.0909,0.1631 0.2246,0.3061 0.4122,0.4372 -0.5274,0.0401 -1.072,0.1494 -1.6079,0.2726 -0.0744,0.0178 -0.1497,0.0265 -0.2233,0.0265 z" transform="translate(-257.7876,-179.3933)" style="fill:#b08a64;fill-rule:evenodd"/>
    <path d="m 419.5163,213.9609 c -0.2026,-6e-4 -0.3829,-0.1081 -0.4817,-0.2884 -0.0994,-0.1781 -0.0915,-0.3893 0.0187,-0.5617 1.034,-1.6271 1.9793,-4.3005 0.6111,-7.7938 -1.4032,-3.588 -2.9604,-12.9369 1.1907,-18.9348 1.8024,-2.601 4.4902,-4.3148 7.9928,-5.0926 1.1672,-0.2599 2.3787,-0.3907 3.6008,-0.3907 1.5006,0 3.0126,0.1967 4.4945,0.5846 0.3034,0.0809 0.4201,0.3054 0.4373,0.49 0.0185,0.1854 -0.0545,0.4274 -0.3121,0.5497 -3.4763,1.6708 -6.0465,4.5359 -7.8576,8.7572 -0.0909,0.2081 -0.2862,0.3383 -0.511,0.3383 -0.2188,0 -0.4107,-0.126 -0.4979,-0.329 -0.8272,-1.9142 -1.5414,-4.6399 -0.2434,-6.7422 l 0.0144,-0.0251 v -0.0515 l -0.5311,-0.3276 h -0.0521 c -2.0379,3.305 0.1953,7.6801 0.928,8.9437 0.0773,0.1325 0.0923,0.2935 0.043,0.443 -0.3527,1.0556 -0.6661,2.1775 -0.961,3.429 -0.0587,0.2511 -0.284,0.4323 -0.5368,0.4323 -0.0914,0 -0.1803,-0.023 -0.2624,-0.0708 -1.1722,-0.6734 -3.13,-2.3759 -3.0749,-6.204 v -0.0286 l -0.0271,-0.0436 -0.6234,-0.009 -0.0444,0.0278 c -0.0665,4.6641 2.6862,6.5067 3.8742,7.0841 0.2282,0.1118 0.352,0.3621 0.3033,0.6098 -0.2647,1.3052 -0.4787,2.5531 -0.6653,3.6537 -0.0939,0.5466 -0.1848,1.0763 -0.2749,1.5821 -0.0478,0.2619 -0.2734,0.4522 -0.5367,0.4522 -0.0543,0 -0.1101,-0.009 -0.1625,-0.0258 -1.4833,-0.473 -4.0478,-1.904 -4.5466,-6.1774 l -0.004,-0.028 -0.0323,-0.0408 -0.6191,0.073 -0.0407,0.0323 c 0.5446,4.6584 3.4026,6.2555 5.0577,6.7971 l 0.2361,0.4444 0.2526,0.4572 c -1.5162,6.0288 -6.0945,7.9565 -6.1395,7.9758 z" transform="translate(-257.7876,-179.3933)" style="fill:#b08a64;fill-rule:evenodd"/>
  </g>
  <g id="drum-music" class="logo-part is-dimmed">
    <path d="m 434.9964,209.7105 c -0.7335,0 -1.3919,-0.1552 -1.9578,-0.4629 -0.1775,-0.0974 -0.2992,-0.2678 -0.3307,-0.468 -0.0336,-0.1955 0.0258,-0.3894 0.1597,-0.5332 3.1699,-3.4097 4.9652,-7.6328 5.3381,-12.5561 0.0172,-0.2189 0.0373,-0.4349 0.058,-0.6396 0.0215,-0.2069 0.146,-0.3894 0.3306,-0.488 1.4262,-0.7564 5.331,-2.5138 10.7843,-2.5138 3.7545,0 7.4949,0.8471 11.1214,2.518 0.7197,0.3321 1.2165,1.0033 1.3229,1.7954 0.109,0.7994 -0.1924,1.5864 -0.8048,2.1058 l -4.2813,3.6252 c -0.1144,0.0965 -0.2576,0.1488 -0.413,0.1488 -0.0629,0 -0.1258,-0.009 -0.188,-0.0265 -0.6219,-0.1716 -1.296,-0.2582 -2.0037,-0.2582 -1.4405,0 -3.0454,0.3456 -4.9066,1.0596 -0.0781,0.0294 -0.1574,0.0444 -0.2376,0.0444 -0.1989,0 -0.3922,-0.0965 -0.5146,-0.2598 -0.1223,-0.1617 -0.1596,-0.3684 -0.1022,-0.5674 0.1209,-0.4235 0.3227,-0.8387 0.5982,-1.2336 1.0446,-1.502 3.7117,-3.4383 10.4817,-4.1404 l 0.0277,-0.002 0.0408,-0.0322 -0.0635,-0.6205 -0.0322,-0.0414 c -5.7053,0.5903 -9.4048,2.0886 -11.0391,4.4586 -0.7314,1.0606 -0.8602,2.0381 -0.8393,2.6728 0.009,0.2604 -0.1311,0.4909 -0.3652,0.6018 -2.2539,1.0682 -4.5715,2.455 -6.6167,3.6779 l -1.0962,0.6547 c -0.1188,0.0702 -0.2284,0.1017 -0.3414,0.1017 -0.2004,0 -0.3914,-0.098 -0.5137,-0.2611 -0.1217,-0.1611 -0.156,-0.3592 -0.1002,-0.559 0.5095,-1.7795 1.4646,-4.3842 3.1206,-6.6842 1.972,-2.7427 4.4385,-4.3656 7.3296,-4.8249 l 0.0272,-0.004 0.0393,-0.0335 -0.0982,-0.6182 -0.0334,-0.0394 c -8.1977,1.3022 -10.8344,10.7285 -11.4484,13.5857 -0.0481,0.2219 -0.2069,0.4006 -0.4165,0.468 -0.7206,0.2318 -1.4046,0.3499 -2.0358,0.3499 z" transform="translate(-257.7876,-179.3933)" style="fill:#b08a64;fill-rule:evenodd"/>
    <path d="m 448.6691,212.764 c -0.1954,0 -0.3678,-0.0974 -0.4594,-0.2621 -0.1854,-0.329 -0.4108,-0.6259 -0.6727,-0.8821 -0.1202,-0.1189 -0.186,-0.2799 -0.1795,-0.443 0.006,-0.1518 0.0722,-0.2899 0.1875,-0.3872 l 16.008,-13.5578 c 0.133,-0.1117 0.3012,-0.174 0.475,-0.174 0.1911,0 0.3722,0.0738 0.5073,0.2069 l 0.1296,0.1274 c 0.1045,0.1016 0.1596,0.2426 0.1546,0.3884 -0.007,0.1475 -0.0745,0.2856 -0.1883,0.3801 l -16.4544,13.7245 -0.0158,0.0495 0.3985,0.4787 0.0495,0.0164 16.9669,-14.151 0.1387,0.1803 -16.6764,14.1697 c -0.1022,0.0872 -0.2338,0.1353 -0.3691,0.1353 z" transform="translate(-257.7876,-179.3933)" style="fill:#b08a64;fill-rule:evenodd"/>
    <path d="m 456.0934,219.097 c -0.1645,0 -0.3242,-0.0728 -0.4286,-0.1953 -0.0688,-0.0816 -0.1432,-0.2211 -0.111,-0.4236 0.798,-4.8752 3.9544,-8.9117 6.4616,-11.4398 2.7292,-2.7513 5.2832,-4.3491 5.3081,-4.3649 1.459,-0.8566 1.1629,-0.1152 1.1629,-0.1152 0,0 -1.8734,3.6028 -2.3185,7.7395 -0.101,0.9332 -0.717,1.7318 -1.6093,2.0831 -3.9034,1.5383 -6.5202,4.3765 -8.0287,6.486 -0.1059,0.1487 -0.2613,0.2302 -0.4365,0.2302 z" transform="translate(-257.7876,-179.3933)" style="fill:#b08a64;fill-rule:evenodd"/>
    <path d="m 446.774,219.1714 c -0.3029,0 -0.5962,-0.0113 -0.8724,-0.0334 1.6758,-0.9704 2.7407,-2.4345 2.8644,-3.8663 0.0108,-0.126 0.0165,-0.254 0.0187,-0.3808 0.009,-0.7269 0.3055,-1.3931 0.8156,-1.8267 l 16.2178,-13.8164 c 0.0507,-0.0428 0.1101,-0.0657 0.1752,-0.0657 0.1268,0 0.2341,0.0866 0.2627,0.209 0.1911,0.8701 0.3963,2.4214 -0.3935,3.0289 -3.0335,2.3329 -8.4209,7.1943 -10.4237,13.55 -0.2055,0.6542 -0.6827,1.1887 -1.3061,1.4647 -3.2385,1.4349 -5.7896,1.7367 -7.3587,1.7367 z" transform="translate(-257.7876,-179.3933)" style="fill:#b08a64;fill-rule:evenodd"/>
    <path d="m 432.8096,216.4599 c -0.1818,0 -0.3063,-0.008 -0.368,-0.0144 -1.9255,-0.8836 -3.9598,-1.5456 -6.0399,-1.9655 -0.3085,-0.0623 -0.5333,-0.3014 -0.5726,-0.6097 -0.0315,-0.242 0.0543,-0.5589 0.3906,-0.725 1.9207,-0.9517 3.6702,-2.1237 5.2002,-3.4819 0.1367,-0.1217 0.3106,-0.1897 0.4872,-0.1897 0.1424,0 0.2777,0.0436 0.3937,0.1246 0.3477,0.2462 0.7463,0.4401 1.1799,0.5775 0.1996,0.0622 0.365,0.229 0.4414,0.4444 0.3335,0.943 1.3956,3.1555 4.0274,3.3373 l 0.0278,8e-4 0.0458,-0.0243 0.043,-0.6226 -0.0251,-0.0452 c -2.3341,-0.1608 -3.2122,-2.0973 -3.4848,-2.9223 0.1274,0.0521 0.2755,0.0674 0.4373,0.0674 1.4353,0 3.059,-0.5325 4.8278,-1.583 l 0.1876,-0.1116 c 0.1116,-0.0665 0.2389,-0.1016 0.3677,-0.1016 0.1875,0 0.3629,0.073 0.4946,0.2047 0.2868,0.2927 0.6346,0.5209 1.0324,0.6783 0.4243,0.1689 0.9002,0.2547 1.412,0.2547 0.971,0 2.103,-0.3054 3.3638,-0.9081 l 0.025,-0.0127 0.028,-0.043 -0.2692,-0.5639 -0.0436,-0.0272 c -1.2008,0.5732 -2.2361,0.8543 -3.1142,0.8543 -0.4186,0 -0.8,-0.0651 -1.1326,-0.1953 -0.0416,-0.0164 -0.0838,-0.0343 -0.1225,-0.0521 -0.2469,-0.111 -0.4021,-0.3386 -0.4165,-0.6083 -0.0156,-0.2718 0.1152,-0.5181 0.3493,-0.6576 4.1554,-2.4694 8.516,-4.8801 12.144,-4.8801 0.314,6e-4 0.561,0.1758 0.6647,0.4586 0.1044,0.289 0.0237,0.6038 -0.209,0.8008 l -7.8784,6.672 c -0.1317,0.1115 -0.2933,0.173 -0.4566,0.173 -0.0615,0 -0.1223,-0.009 -0.1795,-0.0272 -0.3499,-0.1095 -0.7162,-0.1645 -1.0884,-0.1645 -1.1686,0 -2.3915,0.5546 -3.4418,1.5627 -4.0681,3.905 -7.4598,4.3257 -8.7285,4.3257 z" transform="translate(-257.7876,-179.3933)" style="fill:#b08a64;fill-rule:evenodd"/>
    <path d="m 439.0606,218.9891 c -0.8673,0 -1.7847,-0.1252 -2.7235,-0.3706 -0.8093,-0.5452 -1.6994,-1.0706 -2.6383,-1.5586 1.5428,-0.1245 4.6892,-0.9387 8.3206,-4.4229 0.9246,-0.8872 1.9799,-1.3752 2.974,-1.3752 0.4451,0 0.8708,0.0957 1.268,0.2862 0.541,0.2596 0.9817,0.6732 1.3087,1.2294 -0.1817,0.4184 -0.875,1.9742 -2.2233,3.4103 -1.7424,1.8584 -3.8584,2.8014 -6.2862,2.8014 z" transform="translate(-257.7876,-179.3933)" style="fill:#b08a64;fill-rule:evenodd"/>
    <path d="m 456.4197,223.5244 c -0.4987,0 -0.9172,-0.38 -0.9738,-0.8824 -0.0393,-0.3442 0.0244,-0.6726 0.1775,-0.9732 0.8458,-1.6536 4.0987,-7.1921 10.4387,-9.0691 -0.0601,1.5286 0.0614,3.1235 0.3284,4.7127 0.1338,0.8008 -0.37,1.5592 -1.1471,1.7302 -3.3418,0.7321 -6.317,2.7235 -8.2255,4.2655 -0.173,0.141 -0.3813,0.2163 -0.5982,0.2163 z" transform="translate(-257.7876,-179.3933)" style="fill:#b08a64;fill-rule:evenodd"/>
  </g>
  <g id="ritual-arts" class="logo-part is-dimmed">
    <path d="m 482.3015,238.5512 c -0.1389,0 -0.2805,-0.03 -0.4195,-0.088 -2.4107,-1.0032 -5.036,-3.0576 -7.3924,-5.7846 -2.6118,-3.0233 -4.7263,-6.6648 -6.1152,-10.5311 -3.4048,-9.4827 -0.77,-16.5867 0.7126,-19.477 0.0724,-0.1403 0.2641,-0.1511 0.3578,-0.0229 0.1982,0.2704 0.4243,0.5588 0.6692,0.8722 0.1594,0.2055 0.2182,0.4688 0.1653,0.7235 -1.0148,4.9016 -0.353,11.7397 1.688,17.4192 2.3892,6.6561 6.7091,12.6969 11.0046,15.3898 0.005,0.003 0.2785,0.1407 0.2111,0.6882 -0.0594,0.4846 -0.4129,0.8107 -0.8815,0.8107 z" transform="translate(-257.7876,-179.3933)" style="fill:#b08a64;fill-rule:evenodd"/>
    <path d="m 482.1662,235.4567 c -0.1487,0 -0.2919,-0.0523 -0.4136,-0.1511 -3.6829,-3.0233 -7.0963,-8.2119 -9.1314,-13.8784 -1.8533,-5.1586 -2.5494,-11.3153 -1.8446,-15.995 0.0507,-0.3428 0.4944,-0.456 0.6962,-0.1747 6.2184,8.6519 10.1583,18.808 11.366,29.442 0.0223,0.1954 -0.0363,0.383 -0.1637,0.5268 -0.131,0.1458 -0.3164,0.2304 -0.5089,0.2304 z" transform="translate(-257.7876,-179.3933)" style="fill:#b08a64;fill-rule:evenodd"/>
    <path d="m 482.3634,247.7051 c -0.0343,0 -0.0694,-0.002 -0.1025,-0.008 -0.7762,-0.1237 -1.5655,-0.1854 -2.347,-0.1854 -0.4787,0 -0.9625,0.0223 -1.4375,0.0688 -0.0229,0.003 -0.0465,0.004 -0.0688,0.004 -0.1888,0 -0.3627,-0.0736 -0.49,-0.2067 -0.1554,-0.1639 -0.2183,-0.385 -0.1725,-0.6054 0.0451,-0.2203 0.1903,-0.3972 0.3986,-0.4858 l 3.3022,-1.4061 c 0.8244,-0.3507 1.726,0.2976 1.6637,1.1921 -0.0229,0.3363 -0.0464,0.6712 -0.0744,1.0018 -0.0292,0.3541 -0.3248,0.631 -0.6718,0.631 z" transform="translate(-257.7876,-179.3933)" style="fill:#b08a64;fill-rule:evenodd"/>
  </g>
</svg>
